<svg width="383" height="574" viewBox="0 0 383 574" fill="none" xmlns="http://www.w3.org/2000/svg">
<path d="M91.3295 35.0592C90.4595 33.5592 90.2795 31.8192 90.7995 29.8392L92.6195 22.8092C92.8995 21.7092 92.8495 20.7992 92.4495 20.0692C92.0495 19.3392 91.4095 18.8592 90.5295 18.6292L91.2595 15.8192C92.1395 16.0492 92.9395 15.9392 93.6395 15.4892C94.3395 15.0392 94.8295 14.2692 95.1195 13.1692L96.9395 6.1392C97.4495 4.1592 98.4495 2.7192 99.9395 1.8392C101.429 0.949204 103.179 0.769204 105.179 1.2892L106.059 1.5192L105.33 4.3292L104.49 4.1092C103.47 3.8492 102.54 3.9792 101.71 4.4992C100.87 5.0292 100.299 5.8792 99.9995 7.0592L98.1795 14.0892C97.8495 15.3492 97.3695 16.2992 96.7395 16.9292C96.0995 17.5692 95.2895 17.9292 94.2895 18.0092L94.2495 18.1692C95.0795 18.7292 95.6195 19.4292 95.8695 20.2792C96.1195 21.1292 96.0795 22.1992 95.7495 23.4892L93.9295 30.5192C93.6195 31.6992 93.7095 32.7192 94.1895 33.5892C94.6695 34.4592 95.4095 35.0192 96.4295 35.2792L97.2695 35.4992L96.5395 38.3092L95.6595 38.0792C93.6395 37.5692 92.1995 36.5592 91.3295 35.0592Z" stroke="white" stroke-width="0.5" stroke-miterlimit="10"/>
<path d="M129.999 10.9692C131.049 11.2392 131.479 12.4892 130.829 13.3492L113.419 36.4092C113.049 36.8992 112.419 37.1192 111.829 36.9592C110.779 36.6892 110.349 35.4392 110.999 34.5792L128.409 11.5192C128.779 11.0392 129.409 10.8192 129.999 10.9692Z" stroke="white" stroke-width="0.5" stroke-miterlimit="10"/>
<path d="M136.039 45.5492L136.879 45.7692C137.899 46.0292 138.819 45.8992 139.659 45.3792C140.499 44.8492 141.069 43.9992 141.369 42.8192L143.189 35.7892C143.519 34.4992 144.009 33.5492 144.639 32.9292C145.269 32.3092 146.089 31.9492 147.079 31.8692L147.119 31.7092C146.289 31.1492 145.749 30.4392 145.509 29.5792C145.259 28.7192 145.299 27.6492 145.629 26.3892L147.449 19.3592C147.759 18.1792 147.669 17.1592 147.189 16.2892C146.709 15.4192 145.969 14.8592 144.949 14.5992L144.109 14.3792L144.839 11.5692L145.719 11.7992C147.729 12.3192 149.169 13.3292 150.039 14.8292C150.909 16.3292 151.089 18.0692 150.569 20.0492L148.749 27.0792C148.469 28.1792 148.519 29.0892 148.919 29.8192C149.319 30.5492 149.959 31.0292 150.839 31.2592L150.109 34.0692C149.229 33.8392 148.429 33.9492 147.729 34.3992C147.029 34.8492 146.539 35.6192 146.249 36.7192L144.429 43.7492C143.919 45.7292 142.919 47.1692 141.429 48.0492C139.939 48.9392 138.189 49.1192 136.189 48.5992L135.309 48.3692L136.039 45.5492Z" stroke="white" stroke-width="0.5" stroke-miterlimit="10"/>
<path d="M193.37 475.299C193.37 475.309 193.37 475.319 193.38 475.329C196.26 474.789 199.14 474.239 202.02 473.709C203.56 473.429 205.08 473.109 206.43 472.229C208.44 470.929 209.79 469.169 210.4 466.829C210.87 465.009 210.63 463.229 210.3 461.439C209.31 456.129 208.32 450.809 207.31 445.499C206.68 442.149 206.01 438.809 205.36 435.469C204.91 433.179 203.47 431.609 201.58 430.419C199.56 429.149 197.36 428.759 194.98 429.189C185.18 430.989 175.38 432.739 165.59 434.549C161.89 435.229 158.2 435.969 154.54 436.809C150.29 437.789 147.11 442.549 148.03 447.309C149.58 455.349 151.05 463.399 152.59 471.439C152.84 472.749 153.24 474.029 153.62 475.309C154.7 478.949 158.92 481.639 162.69 481.049C163.48 480.929 163.69 481.219 163.81 481.919C164.41 485.249 165.06 488.569 165.69 491.899C165.86 492.779 166.2 493.569 167.1 493.879C168.03 494.199 168.7 493.649 169.26 493.009C170.7 491.359 172.12 489.689 173.51 487.989C176.25 484.649 178.94 481.279 181.69 477.949C181.95 477.639 182.4 477.379 182.8 477.299C186.31 476.609 189.84 475.969 193.37 475.299Z" stroke="white" stroke-width="0.5" stroke-miterlimit="10"/>
<path d="M168.83 456.269C168.4 453.959 166.03 452.559 163.45 452.989C161.27 453.359 160 455.899 160.39 457.919C160.89 460.469 163.05 461.729 165.66 461.349C167.82 461.039 169.27 458.649 168.83 456.269Z" stroke="white" stroke-width="0.5" stroke-miterlimit="10"/>
<path d="M198.06 450.929C197.49 448.329 195.44 447.019 193.06 447.379C190.47 447.769 189.21 450.469 189.56 452.429C190.04 455.089 192.87 456.349 194.45 455.939C196.86 455.309 198.37 453.349 198.06 450.929Z" stroke="white" stroke-width="0.5" stroke-miterlimit="10"/>
<path d="M179.92 458.579C182.28 458.269 183.78 455.899 183.39 453.569C182.99 451.199 180.85 449.809 178.39 450.239C176 450.659 174.66 452.769 175.12 455.389C175.49 457.539 177.63 458.959 179.92 458.579Z" stroke="white" stroke-width="0.5" stroke-miterlimit="10"/>
<path d="M323.092 247.001L276.516 255.808L279.589 272.061L326.165 263.254L323.092 247.001Z" stroke="white" stroke-width="0.5" stroke-miterlimit="10"/>
<path d="M279.585 271.994L326.16 263.187L323.087 246.935L276.512 255.741L279.585 271.994Z" stroke="white" stroke-width="0.5" stroke-miterlimit="10"/>
<path d="M318.772 224.192L272.197 232.999L275.27 249.251L321.846 240.444L318.772 224.192Z" stroke="white" stroke-width="0.5" stroke-miterlimit="10"/>
<path d="M275.276 249.186L321.851 240.379L318.778 224.127L272.203 232.934L275.276 249.186Z" stroke="white" stroke-width="0.5" stroke-miterlimit="10"/>
<path d="M329.22 119.869C346.97 106.249 343.729 91.1192 343.729 91.1192M310.359 160.549C311.299 159.169 311.919 157.619 312.669 156.139C313.019 155.449 313.37 154.749 313.78 154.089C314.66 152.659 315.459 152.389 316.979 153.089C317.879 153.499 318.73 154.029 319.6 154.529C320.52 155.059 320.58 155.049 321.13 154.119C321.24 153.929 321.34 153.729 321.44 153.529C325.03 146.649 328.62 139.769 332.22 132.889C332.66 132.059 333 131.139 333.58 130.419C334.89 128.799 335.64 126.879 336.64 125.099C337.22 124.069 337.119 123.829 336.039 123.299C334.199 122.389 332.35 121.519 330.5 120.629C329.8 120.289 329.03 120.019 328.82 119.149C328.59 118.209 327.92 117.819 327.08 117.569C324.52 116.799 321.91 116.339 319.25 116.129C314.87 115.779 310.5 115.989 306.13 116.249C301.81 116.509 297.53 117.039 293.27 117.819C289.07 118.599 284.87 119.289 280.81 120.659C278.6 121.409 276.4 122.149 274.19 122.889C272.08 123.589 270.09 124.499 268.31 125.899C266.56 127.279 264.62 128.369 262.35 128.699C260.06 129.039 258.18 127.939 257.31 125.789C256.66 124.179 256.359 122.499 256.359 120.759C256.369 116.559 257.209 112.489 258.229 108.459C260.209 100.649 262.89 93.0692 266.06 85.6692C269.64 77.2992 273.97 69.2992 278.6 61.4692C281.99 55.7392 285.67 50.2092 289.71 44.9092C293.09 40.4892 296.78 36.3592 301.12 32.8692C302.94 31.4092 304.929 30.2192 307.289 29.7392C309.069 29.3792 310.43 29.9892 311.57 31.3092C312.51 32.4092 312.86 33.7192 313.09 35.1092C313.4 37.0292 313.09 38.9792 313.57 40.8892C314.68 45.3092 316.059 49.6092 317.859 53.8092C320.149 59.1492 322.01 64.6592 324.68 69.8692C327.16 74.7192 329.94 79.3592 333.1 83.7892C335.12 86.6192 337.56 88.9992 340.33 91.0792C340.97 91.5592 341.48 91.7592 342.27 91.3192C343.15 90.8292 344.08 91.1092 344.97 91.5392C348.96 93.4792 352.93 95.4392 356.85 97.5092C360.82 99.6092 364.81 101.669 368.84 103.649C370.21 104.319 370.69 105.289 370.58 106.689C370.5 107.679 370.37 108.669 370.27 109.669C370.2 110.389 370.28 110.979 371.2 111.109C371.83 111.199 372.219 111.719 372.609 112.199C373.699 113.539 374.02 115.189 374.59 116.749C375.91 120.359 375.149 123.729 373.419 126.989C372.929 127.909 372.2 128.519 371.25 128.949C369.38 129.809 367.35 129.719 365.39 129.989C364.02 130.179 362.609 130.489 361.289 129.899C360.429 129.519 359.95 129.749 359.47 130.429C358.92 131.219 358.14 131.759 357.39 132.329C356.77 132.799 356.089 132.919 355.359 132.569C354.709 132.259 354.05 131.969 353.39 131.679C352.93 131.469 352.56 131.459 352.31 132.019C350.78 135.539 348.669 138.749 346.979 142.169C345.209 145.739 343.269 149.229 341.669 152.889C340.119 156.449 337.979 159.729 336.549 163.339C335.399 166.249 333.849 168.929 332.229 171.569C331.199 173.249 330.38 173.509 328.65 172.659C327.16 171.929 325.72 171.079 324.24 170.319C320.39 168.349 316.53 166.399 312.68 164.429C311.99 164.079 311.399 163.799 310.729 163.199C310.729 163.229 309.609 162.289 310.359 160.549ZM313.25 37.9092L312.1 45.1292C311.78 47.1792 311.32 49.1992 310.76 51.1992C303.82 75.5792 291.389 96.9092 275.539 116.769L267 126.839L313.25 37.9092ZM370.59 110.909C368.94 116.769 366.219 123.919 361.549 128.129C361.239 128.409 360.84 129.089 360.88 129.769L370.59 110.909Z" stroke="white" stroke-width="0.538" stroke-miterlimit="10"/>
<path d="M174.139 40.6592C176.579 40.6992 179.02 40.7492 181.46 40.7692C191.21 40.8392 200.969 40.8792 210.719 40.9592C218.039 41.0192 225.349 41.1092 232.669 41.1792C235.659 41.2092 238.66 41.2192 241.65 41.2892C243.33 41.3292 243.759 42.1792 242.949 43.6992C242.739 44.0892 242.509 44.4692 242.329 44.8792C239.809 50.5492 237.29 56.2292 234.78 61.9092C234.31 62.9692 234.409 63.1392 235.499 63.3692C244.619 65.2592 253.739 67.1392 262.859 69.0292C263.239 69.1092 263.619 69.1792 263.989 69.2992C264.269 69.3892 264.479 69.5692 264.449 69.8992C264.419 70.2192 264.199 70.3892 263.919 70.4592C263.599 70.5392 263.269 70.5692 262.939 70.6092C260.079 70.9392 257.219 71.2492 254.359 71.5792C248.579 72.2492 242.81 72.9192 237.03 73.5992C231.64 74.2292 226.249 74.8792 220.859 75.4992C218.939 75.7192 216.999 75.8492 215.069 76.0292C214.439 76.0892 214.239 75.8192 214.419 75.2492C214.519 74.9392 214.669 74.6392 214.819 74.3392C216.249 71.5192 217.669 68.6992 219.119 65.8892C220.809 62.6392 222.529 59.4192 224.229 56.1792C224.939 54.8292 224.879 54.7292 223.349 54.2892C223.079 54.2092 222.809 54.1492 222.539 54.0792C217.759 52.8492 212.989 51.6092 208.199 50.3992C197.719 47.7492 187.239 45.1092 176.759 42.4592C175.319 42.0992 173.879 41.7092 172.099 41.2492C172.939 40.5792 173.539 40.6492 174.139 40.6592Z" stroke="white" stroke-width="0.538" stroke-miterlimit="10"/>
<path d="M238.259 105.619C238.069 105.729 237.87 105.819 237.66 105.879C232.96 107.179 228.379 108.829 223.659 110.079C218.579 111.419 213.619 113.189 208.489 114.369C206.449 114.839 206.379 114.869 206.859 112.839C206.949 112.459 207.049 112.089 207.149 111.709C208.079 108.349 209.029 104.989 209.939 101.619C210.349 100.109 210.249 99.9692 208.729 99.9092C205.579 99.7992 202.419 99.7192 199.259 99.6392C193.669 99.4992 188.08 99.3892 182.49 99.2492C180.66 99.1992 178.839 99.0892 177.009 98.9692C176.549 98.9392 175.859 99.0192 175.819 98.3692C175.779 97.7792 176.439 97.8492 176.839 97.7592C179.219 97.2292 181.589 96.7092 183.979 96.2392C189.239 95.2092 194.519 94.2292 199.749 93.0492C205.309 91.7992 210.909 90.7692 216.509 89.6692C217.919 89.3892 219.349 89.1892 220.779 89.0692C222.259 88.9392 222.429 89.1992 222.029 90.6692C221.569 92.3792 221.059 94.0792 220.599 95.7892C220.019 97.9292 219.419 100.059 218.889 102.209C218.479 103.889 218.529 103.899 220.169 103.999C220.339 104.009 220.499 104.029 220.669 104.029C226.209 104.199 231.729 104.529 237.259 104.879C237.679 104.909 238.16 104.809 238.4 105.309C238.36 105.429 238.339 105.569 238.259 105.619Z" stroke="white" stroke-width="0.538" stroke-miterlimit="10"/>
<path d="M222.889 2.14919C223.339 2.08919 223.769 2.24919 224.189 2.38919C225.919 2.96919 227.649 3.55919 229.379 4.14919C238.439 7.24919 247.509 10.3492 256.569 13.4692C259.239 14.3892 261.909 15.3292 264.549 16.3092C265.609 16.7092 265.659 17.0092 264.959 17.8592C264.149 18.8492 263.319 19.8092 262.479 20.7692C260.769 22.7292 259.05 24.6792 257.35 26.6492C256.14 28.0492 256.179 28.2192 257.729 29.0892C257.779 29.1192 257.829 29.1392 257.879 29.1692C262.209 31.5292 266.539 33.8892 270.859 36.2592C271.689 36.7092 272.499 37.1892 273.299 37.6892C273.529 37.8292 273.729 38.0692 273.549 38.3892C273.429 38.6092 273.2 38.6492 272.97 38.6192C272.7 38.5892 272.429 38.5292 272.149 38.4692C269.599 37.9592 267.039 37.4692 264.499 36.9292C257.569 35.4592 250.629 33.9692 243.699 32.4792C243.159 32.3592 242.609 32.2492 242.109 32.0192C241.249 31.6292 241.139 31.0592 241.739 30.3192C242.019 29.9792 242.339 29.6692 242.649 29.3492C245.119 26.8892 247.599 24.4292 250.069 21.9692C251.149 20.8892 251.129 20.6792 249.819 19.9092C243.999 16.4792 238.169 13.0692 232.439 9.48919C229.579 7.69919 226.689 5.94919 223.819 4.16919C223.259 3.81919 222.699 3.44919 222.389 2.86919C222.299 2.40919 222.509 2.19919 222.889 2.14919Z" stroke="white" stroke-width="0.538" stroke-miterlimit="10"/>
<path d="M336.519 93.8292C334.019 92.1092 324.519 84.5592 312.979 62.4092C312.739 61.9492 312.069 62.0192 311.949 62.5192C311.429 64.6292 309.879 69.2792 305.289 79.0992C304.799 80.1492 305.159 81.4092 306.149 82.0292L333.739 99.5092C334.389 99.9192 335.249 99.7892 335.729 99.1892C336.369 98.3792 337.099 97.0492 337.179 95.1692C337.199 94.6392 336.959 94.1292 336.519 93.8292Z" stroke="white" stroke-width="0.538" stroke-miterlimit="10"/>
<path d="M338.22 119.009C342.49 121.469 350.469 124.979 355.019 126.929C355.539 127.149 356.07 127.359 356.6 127.549C356.96 127.679 357.52 127.639 357.84 127.429C358.97 126.679 359.799 125.649 360.269 124.369C360.499 123.729 360.079 123.319 359.559 123.039C358.039 122.229 356.519 121.439 355.009 120.639C350.869 118.459 346.249 115.549 342.049 113.309C341.659 113.099 341.189 113.189 340.889 113.509C338.899 115.659 336.1 117.839 338.22 119.009Z" stroke="white" stroke-width="0.538" stroke-miterlimit="10"/>
<path d="M346.99 105.319C346.84 105.839 347.08 106.389 347.57 106.629C352.32 108.949 358.7 111.769 363.01 113.629C363.44 113.819 363.94 113.699 364.25 113.339C365.31 112.119 366.54 109.099 366.92 108.059C367.15 107.419 366.73 107.009 366.21 106.729C364.87 106.019 353.06 100.029 350.3 98.6292C349.91 98.4292 349.44 98.5892 349.26 98.9892C348.62 100.299 347.59 103.299 346.99 105.319Z" stroke="white" stroke-width="0.538" stroke-miterlimit="10"/>
<path d="M287.869 71.4492C289.919 72.0992 291.969 72.7492 294.019 73.3792C295.599 73.8592 295.709 73.8092 296.359 72.3992C300.359 63.8292 303.769 55.0292 306.289 45.9092C307.089 43.0292 307.589 40.0792 308.019 37.1192C308.189 35.9792 307.959 34.8492 307.929 33.7192C307.909 32.8892 307.369 32.7492 306.669 32.9792C305.679 33.3092 304.939 34.0192 304.129 34.6292C300.469 37.4092 297.599 40.9292 294.899 44.5892C287.369 54.7792 281.299 65.8092 275.909 77.2392C272.439 84.5992 269.209 92.0492 266.669 99.7892C264.539 106.269 262.719 112.839 261.809 119.619C261.679 120.569 261.609 121.519 261.559 122.479C261.529 123.159 261.929 123.379 262.469 122.999C263.339 122.379 264.209 121.729 264.989 120.989C268.449 117.669 271.579 114.059 274.359 110.159C278.179 104.809 281.909 99.3992 285.159 93.6692C285.309 93.4092 285.439 93.1392 285.609 92.8992C286.179 92.1092 286.029 91.4992 285.239 90.9492C283.379 89.6592 281.949 87.7992 279.809 86.8792C279.409 86.7092 279.169 86.3292 279.089 85.8992C278.999 85.4292 278.869 84.9492 278.919 84.4892C279.329 80.0792 280.769 76.0992 283.899 72.8592C284.619 72.1192 285.349 71.6392 285.999 71.4092C286.589 71.1192 287.229 71.2492 287.869 71.4492ZM285.599 74.1592C283.529 76.8992 281.979 79.8992 281.259 83.2792C281.189 83.6292 281.149 83.9892 281.119 84.3392C281.099 84.6392 281.109 84.9592 281.399 85.1292C281.799 85.3692 282.089 85.1092 282.319 84.8292C284.839 81.7992 286.819 78.5192 286.919 74.4192C286.919 74.2392 286.929 74.0592 286.889 73.8892C286.809 73.5192 286.559 73.3892 286.129 73.5892C286.009 73.7292 285.769 73.9192 285.599 74.1592Z" stroke="white" stroke-width="0.538" stroke-miterlimit="10"/>
<path d="M332.27 106.649C331.94 108.009 331.33 110.279 330.61 111.949C330.36 112.539 329.66 112.839 329.01 112.649C324.56 111.369 307.27 106.909 290.16 109.549C289.4 109.669 288.83 108.909 289.24 108.289C290.81 105.909 293.79 101.329 295.79 97.8592C296.26 97.0492 297.25 96.6492 298.2 96.8892L331.31 105.169C332.01 105.339 332.43 105.989 332.27 106.649Z" stroke="white" stroke-width="0.538" stroke-miterlimit="10"/>
<path d="M336.549 163.359L320.39 154.879" stroke="white" stroke-width="0.538" stroke-miterlimit="10"/>
<path d="M346.46 137.189L333.63 161.799" stroke="white" stroke-width="0.538" stroke-miterlimit="10"/>
<path d="M330.729 160.279L340.84 140.829" stroke="white" stroke-width="0.538" stroke-miterlimit="10"/>
<path d="M353.38 131.689L336.66 123.649" stroke="white" stroke-width="0.538" stroke-miterlimit="10"/>
<path d="M296.07 72.9892L285.16 93.6592" stroke="white" stroke-width="0.538" stroke-miterlimit="10"/>
<path d="M260.649 533.779C259.519 533.629 258.399 533.389 257.269 533.339C254.549 533.219 252.089 532.209 249.649 531.179C247.549 530.289 245.499 529.249 243.519 528.119C242.339 527.449 241.259 526.559 240.279 525.609C236.899 522.359 233.879 518.899 232.149 514.389C230.859 511.039 230.149 507.619 229.839 504.089C229.639 501.779 229.399 499.469 229.439 497.159C229.479 494.829 229.679 492.469 230.109 490.179C230.679 487.109 231.449 484.059 232.309 481.059C232.709 479.649 233.43 478.309 234.16 477.019C236.24 473.359 238.429 469.739 241.589 466.899C245.009 463.819 248.739 461.249 253.109 459.589C256.249 458.399 259.419 457.289 262.729 456.929C265.989 456.569 269.289 456.579 272.579 456.539C278.039 456.469 283.149 457.969 287.919 460.529C291.019 462.189 293.989 464.109 296.309 466.839C298.499 469.429 300.439 472.209 301.769 475.329C302.649 477.389 303.399 479.539 303.939 481.719C304.449 483.789 304.609 485.939 304.929 488.049C304.959 488.219 305.009 488.379 305.049 488.539C305.049 489.339 305.049 490.149 305.049 490.949C304.829 492.649 304.639 494.339 304.389 496.039C303.619 501.389 301.989 506.429 298.459 510.609C296.199 513.289 293.239 515.009 289.699 515.599C287.699 515.929 285.719 515.949 283.759 515.429C281.059 514.719 278.919 513.169 277.239 510.949C277.069 510.729 276.889 510.509 276.699 510.269C275.779 511.089 274.939 511.949 273.989 512.669C271.409 514.629 268.499 515.619 265.229 515.649C262.699 515.669 260.219 515.639 257.819 514.689C254.199 513.259 251.659 510.679 249.969 507.249C248.039 503.329 247.429 499.099 247.779 494.809C248.109 490.839 248.999 486.919 251.289 483.549C254.289 479.119 258.279 476.029 263.589 474.689C266.409 473.979 269.199 474.099 272.009 474.369C274.619 474.619 277.219 475.009 279.799 475.439C281.029 475.639 282.229 476.039 283.429 476.419C284.379 476.719 284.849 477.399 284.799 478.439C284.619 482.129 284.459 485.809 284.289 489.499C284.219 491.099 284.159 492.699 284.109 494.309C284.039 496.739 283.919 499.169 283.949 501.609C283.959 502.489 284.229 503.409 284.559 504.249C285.149 505.729 286.309 506.029 287.859 506.009C289.619 505.979 290.769 505.039 291.579 503.539C293.179 500.609 294.089 497.509 294.369 494.169C294.639 490.889 294.469 487.649 293.809 484.459C293.199 481.509 292.189 478.639 290.389 476.199C287.799 472.689 284.62 469.959 280.41 468.379C276.49 466.899 272.519 466.349 268.389 466.589C263.609 466.869 258.849 467.429 254.589 469.839C249.889 472.499 246.129 476.169 243.629 481.029C241.859 484.469 240.759 488.149 240.299 491.949C239.799 496.179 239.689 500.489 240.449 504.709C241.319 509.509 243.189 513.919 246.799 517.379C249.629 520.099 253.059 521.739 256.829 522.709C260.609 523.689 264.479 523.799 268.329 523.559C273.619 523.229 278.779 522.139 283.729 520.179C284.279 519.959 284.969 519.949 285.579 520.019C286.389 520.109 286.989 520.619 286.999 521.489C287.039 523.799 287.069 526.119 286.959 528.419C286.939 528.879 286.359 529.469 285.889 529.719C283.149 531.169 280.259 532.229 277.199 532.789C275.129 533.169 273.049 533.459 270.969 533.789C267.529 533.779 264.089 533.779 260.649 533.779Z" stroke="white" stroke-width="0.5" stroke-miterlimit="10"/>
<path d="M265.369 505.899C267.579 506.059 269.55 505.359 270.72 503.269C271.46 501.939 272.14 500.489 272.44 499.009C273.38 494.439 273.57 489.779 273.69 485.119C273.71 484.509 273.41 484.299 272.88 484.279C271.03 484.209 269.18 484.009 267.34 484.119C264.41 484.289 262.25 485.829 260.83 488.389C259.68 490.469 259.11 492.719 258.88 495.079C258.66 497.319 258.72 499.569 259.33 501.709C260.1 504.469 261.749 506.069 265.369 505.899Z" stroke="white" stroke-width="0.5" stroke-miterlimit="10"/>
<path d="M264.939 183.089C265.149 182.959 265.269 182.859 265.399 182.809C267.789 181.789 270.189 180.799 272.559 179.749C272.909 179.589 273.329 179.259 273.439 178.919C273.619 178.359 273.419 177.819 272.829 177.479C271.839 176.909 270.899 176.279 269.909 175.709C265.709 173.289 261.509 170.889 257.309 168.469C253.449 166.239 249.619 163.979 245.749 161.779C245.749 161.779 245.739 161.779 245.739 161.769C244.949 161.329 243.949 162.009 244.029 162.909C244.029 162.929 244.029 162.939 244.029 162.959C244.199 164.349 244.499 165.729 244.679 167.119C245.159 170.849 245.569 174.599 246.059 178.329C246.469 181.409 246.949 184.479 247.399 187.549C247.699 189.589 247.969 191.629 248.329 193.659C248.419 194.159 248.729 194.779 249.129 195.019C249.689 195.359 250.239 194.949 250.699 194.489C251.579 193.589 252.489 192.729 253.389 191.849C254.459 190.809 255.519 189.769 256.669 188.659C257.039 189.129 257.369 189.519 257.659 189.919C258.799 191.499 259.909 193.099 261.069 194.659C261.579 195.339 262.529 195.519 263.229 195.049C265.009 193.879 266.779 192.679 268.529 191.469C269.499 190.799 269.549 190.439 268.899 189.399C268.179 188.259 267.459 187.119 266.739 185.979C266.159 185.039 265.559 184.079 264.939 183.089Z" stroke="white" stroke-width="0.5" stroke-miterlimit="10"/>
<path d="M61.0895 455.569C61.1195 455.569 61.1595 455.569 61.1895 455.579C63.1295 455.769 65.0595 455.989 66.9995 456.149C80.2295 457.239 91.6095 463.079 101.67 472.599C101.7 472.629 101.74 472.669 101.76 472.699C105.85 477.709 110.35 482.559 113.05 488.499C115.03 492.849 116.7 497.389 117.16 502.239C117.56 506.479 118.149 510.729 118.189 514.969C118.219 518.059 117.61 521.179 117.05 524.239C114.92 535.799 109.669 546.189 101.399 555.159C101.369 555.189 101.339 555.219 101.309 555.249C92.9595 562.709 83.8895 568.649 73.5695 571.599C70.3695 572.509 66.9595 572.889 63.6195 573.049C54.1195 573.479 44.9195 571.759 36.2395 567.919C26.4195 563.569 18.3795 556.179 11.4795 547.259C11.4595 547.229 11.4395 547.199 11.4195 547.169C9.33951 543.929 7.46951 540.469 6.00951 536.889C4.58951 533.399 3.20949 529.819 2.42949 526.139C-0.730511 511.379 1.24951 497.389 9.35951 484.469C11.1195 481.669 12.6595 478.659 14.8195 476.219C19.4395 471.009 25.1795 467.069 31.0395 463.359C38.7395 458.479 47.2595 456.309 56.2795 455.819C56.7095 455.799 57.1395 455.679 57.5695 455.599C57.6295 455.589 57.6995 455.579 57.7595 455.579H61.0895V455.569ZM99.0695 470.239L97.8995 471.169C97.4995 470.789 96.7895 470.749 96.4295 471.179C96.2095 471.439 95.8495 471.549 95.0395 471.719C94.7395 471.779 94.4795 471.989 94.3495 472.259C93.8895 473.209 93.5795 474.019 93.0495 474.649C92.7295 475.029 91.8795 475.159 91.3095 475.089C90.8995 475.029 90.2295 474.399 90.2695 474.109C90.3395 473.679 90.9195 473.319 91.4295 472.779C90.4795 472.569 89.5095 472.379 88.5595 472.149C87.9695 472.009 87.3095 471.939 86.8095 471.629C85.5695 470.859 84.1595 470.889 83.1395 471.829C82.0195 472.849 82.5595 473.749 83.2395 474.729C84.0195 475.849 83.8595 476.449 82.7595 476.729C82.2295 476.859 81.9395 477.449 82.0995 477.969C82.3095 478.679 82.2495 479.029 82.0695 480.349C82.0195 480.709 82.3695 481.109 82.5495 481.549C84.2295 480.099 84.4595 480.129 85.5995 481.739C86.0395 482.359 86.4795 483.279 87.3695 482.569C88.1395 481.959 88.2095 481.109 87.5895 480.129C86.9995 479.199 86.4495 478.089 86.3795 477.029C86.3195 476.119 86.9595 475.169 87.3095 474.169C88.4895 474.609 88.7595 475.599 88.7695 476.679C88.7795 478.349 89.0195 478.579 90.5495 477.999C91.5295 477.629 92.3795 477.819 92.6995 478.749C92.7995 479.049 92.5395 479.479 92.2695 479.949C92.0795 480.279 92.0895 480.699 92.3195 481.009C93.0595 482.009 92.8495 482.509 91.7095 482.769C91.3895 483.419 91.2595 483.949 90.9295 484.299C90.5395 484.719 90.0295 485.079 89.4895 485.289C88.9995 485.479 88.4095 485.469 87.8695 485.499C87.1195 485.549 86.3295 485.409 85.6395 485.629C85.0895 485.799 84.6595 486.379 84.2395 486.719C84.1195 487.189 84.1395 487.799 83.8495 488.109C82.6095 489.389 81.2695 490.579 79.9395 491.829C80.5295 492.269 81.0795 492.589 81.5295 493.019C82.3895 493.849 82.5095 494.939 82.0095 495.939C81.5195 496.919 80.5495 496.869 79.5995 496.579C78.9895 496.389 78.3695 496.249 77.8795 496.129C77.7395 497.469 77.5195 498.629 77.5495 499.789C77.5595 500.319 77.9895 500.909 78.3795 501.329C78.7695 501.749 82.4895 501.469 82.8795 501.049C83.0195 500.899 83.0095 500.609 83.1095 500.409C83.5695 499.449 84.0195 498.479 84.5095 497.539C84.8295 496.919 85.3095 496.379 85.5595 495.739C85.9895 494.659 87.5295 493.999 88.5295 494.639C89.9995 495.569 89.2195 498.659 90.6795 499.589C90.7695 499.649 91.0695 499.439 91.4295 499.169C92.1895 498.599 92.4095 497.549 91.9395 496.719C91.6195 496.149 91.3295 495.609 90.8295 495.169C90.4295 494.809 91.5595 493.439 91.9495 493.779C93.3895 495.019 94.7095 496.409 96.0895 497.719C96.4195 498.029 96.8095 498.279 96.9995 498.419C97.4495 497.679 97.6295 496.999 98.0695 496.739C99.0895 496.129 99.1195 495.509 98.6795 494.479C98.4395 493.929 98.5295 492.909 98.8995 492.509C99.2695 492.119 100.19 492.179 100.86 492.179C101.36 492.179 101.889 492.539 102.369 492.479C103.529 492.349 104.159 492.999 104.679 493.799C105.169 494.549 104.499 495.499 103.619 495.319C102.519 495.099 101.63 495.089 101.05 496.319C101 496.429 100.819 496.509 100.689 496.529C99.5595 496.679 99.5595 497.429 99.8195 498.239C100.12 499.149 100.79 499.299 101.67 499.039C102.77 498.709 103.899 498.549 104.619 499.749C105.319 500.909 105.21 503.519 104.38 504.249C103.99 504.599 103.4 504.729 102.88 504.929C102.46 505.089 101.919 505.089 101.589 505.359C100.819 505.999 100.109 505.889 99.3395 505.419C98.8995 505.159 96.9795 507.429 94.8195 506.399C93.5695 505.799 92.4095 504.969 91.3295 504.109C91.0895 503.909 90.9595 503.609 90.9595 503.299C90.9595 501.569 90.3595 501.569 89.2295 502.019C88.0495 502.499 86.8095 502.859 85.5695 503.179C84.5195 503.449 83.4395 503.589 82.3695 503.789C81.8595 503.889 81.3095 504.169 80.8395 504.069C79.4495 503.769 79.4195 504.559 79.2495 505.589C79.1395 506.269 78.6895 507.149 78.1295 507.459C77.3795 507.879 77.1395 508.149 77.4395 508.979C77.8695 510.169 77.6295 511.429 76.6195 512.119C72.6395 514.839 73.3095 519.159 72.6595 523.019C72.6195 523.229 72.6595 523.449 72.7595 523.639C73.9495 525.849 74.8495 528.359 76.5495 530.069C77.9995 531.519 80.4795 532.029 82.7795 531.009C84.0095 530.469 85.2495 529.899 86.5395 529.599C87.2895 529.419 88.1495 529.719 88.9595 529.839C89.4995 529.919 90.0395 530.119 90.5795 530.149C91.5395 530.199 92.2995 530.459 92.3295 531.579C92.3395 532.149 92.2995 532.739 92.1595 533.299C91.9095 534.339 92.1895 535.169 92.6495 536.149C93.6795 538.319 94.5295 540.689 93.1895 543.009C92.2895 544.569 91.8595 546.169 91.7695 547.909C91.6495 550.439 91.5295 552.959 91.4095 555.699C92.1795 555.519 92.7395 555.499 93.1595 555.259C94.6595 554.409 96.0895 553.449 97.5895 552.599C99.3795 551.589 100.379 550.029 100.999 548.129C101.279 547.269 101.499 546.349 101.969 545.589C103.179 543.649 104.47 541.739 105.83 539.899C107.02 538.279 107.52 536.479 107.66 534.529C107.84 532.039 108.44 529.709 110.11 527.739C111.73 525.829 112.45 523.589 112.85 521.199C112.97 520.449 112.26 519.819 111.55 520.079C110.02 520.649 109.15 519.779 108.77 517.459C108.67 516.869 108.329 516.309 108.089 515.739C107.709 514.859 107.029 514.009 106.969 513.119C106.859 511.469 106 510.249 105.21 508.949C105.06 508.699 104.889 508.439 104.809 508.199C104.219 506.459 105.61 505.989 106.33 507.349C107.08 508.769 107.52 510.399 108.46 511.669C109.49 513.059 110.4 513.549 111.63 514.709C112 515.059 116.909 512.239 113.779 508.519C113.479 508.159 112.98 507.939 112.54 508.099C111.95 508.319 111.59 507.699 111.3 506.979C111.01 506.279 110.77 505.549 110.6 504.809C110.51 504.449 110.629 504.039 110.649 503.649C111.059 503.699 111.76 503.629 111.83 503.809C112.58 505.669 113.98 505.439 115.46 505.069C115.46 505.069 117.15 504.589 117.45 505.029L99.0695 470.239ZM25.4195 470.159C24.2995 470.529 23.2595 470.609 22.5795 471.139C19.8095 473.309 16.3595 474.789 15.3595 478.769C14.8895 480.629 13.4495 482.229 12.9395 484.079C12.4695 485.799 11.9695 487.399 11.0395 488.939C8.9095 492.489 8.05951 496.349 8.29951 500.419C8.32951 500.859 8.70949 501.099 9.11949 501.229C9.36949 501.309 9.46951 501.749 9.50951 502.219C9.77951 505.179 10.0295 508.139 10.2295 511.099C10.3195 512.409 12.3695 515.789 13.3095 516.239C16.0595 517.539 18.1695 519.439 19.1895 522.439C19.5595 523.529 20.3795 524.429 21.7395 524.559C20.1795 523.489 20.0495 521.859 19.8295 520.219C19.7495 519.649 19.3695 518.769 18.9395 518.649C17.4295 518.209 17.6095 517.249 17.8795 516.159C18.0795 515.359 18.2895 514.569 18.4995 513.779C18.3395 513.699 18.1795 513.619 18.0195 513.529C17.7195 513.869 17.4495 514.259 17.0895 514.539C16.6795 514.859 16.1595 515.319 15.7295 515.279C14.2295 515.139 13.1695 513.989 13.1995 512.439C13.2295 511.009 13.4195 509.569 13.7195 508.169C14.2995 505.469 15.3995 504.769 17.5095 505.859C17.8995 506.059 18.3995 506.009 18.6795 505.679C19.3395 504.889 20.4195 505.169 21.2195 505.449C21.8595 505.679 21.6495 508.399 21.9295 509.189C22.2295 510.009 23.9595 509.799 23.8795 509.109C23.6595 507.019 23.6695 504.429 25.4995 503.149C26.4895 502.459 27.5295 501.359 27.4195 499.749C27.3895 499.339 28.0695 498.869 28.4595 498.459C28.6595 498.249 28.9495 498.119 29.1495 497.899C29.7495 497.229 30.3395 496.579 31.1995 496.509C31.6395 496.479 32.0295 496.139 32.1095 495.709C32.3295 494.569 33.2495 493.829 34.6295 493.649C35.2595 493.569 35.8795 493.339 36.4995 493.179C36.3995 493.079 36.2995 492.979 36.1995 492.879C36.4795 492.209 36.7495 491.549 37.0495 490.819C36.0495 491.109 34.9395 491.429 33.8395 491.749C33.7495 491.599 33.6595 491.459 33.5695 491.309C33.8595 490.859 34.0995 490.349 34.4595 489.959C35.5295 488.829 36.9395 488.609 38.4095 488.549C39.7995 488.489 41.1895 488.399 42.5495 488.169C42.9695 488.099 43.3095 487.519 43.9395 486.959C42.7195 486.829 41.9895 486.749 41.2595 486.669C41.1595 486.499 41.0495 486.329 40.9495 486.149C41.4595 485.909 41.9695 485.659 42.4795 485.419C42.5095 485.299 42.5395 485.169 42.5695 485.049C40.0795 484.589 40.9895 482.419 40.2595 481.069C39.9995 481.159 39.8295 481.259 39.6395 481.279C39.0095 481.359 38.3895 481.419 37.7595 481.489C37.7095 480.879 37.7895 480.209 37.5795 479.659C37.3295 479.009 36.9395 478.329 36.4095 477.909C36.1895 477.729 35.2395 478.029 35.0095 478.379C34.2195 479.559 33.3595 480.599 33.0595 482.209C32.6995 484.089 31.3295 485.809 30.2795 487.519C30.0695 487.859 29.1395 488.119 28.8295 487.929C28.3995 487.669 28.0095 486.939 28.0395 486.439C28.0895 485.669 28.5195 484.929 28.7895 484.159C28.2895 483.859 27.8395 483.609 27.3995 483.329C26.0895 482.499 25.7395 481.099 25.6995 479.749C25.6895 479.239 26.6295 478.699 27.1395 478.169C27.2395 478.069 27.3695 477.979 27.4295 477.849C28.0495 476.639 29.0195 476.009 30.3595 475.759C30.6995 475.699 30.8995 475.059 31.2495 474.789C31.6995 474.429 32.2395 473.889 32.7095 473.909C33.9695 473.969 35.0695 473.429 35.5195 472.329C34.9795 472.429 33.8595 472.759 33.7895 472.619C33.1795 471.269 32.4595 471.599 31.5695 472.239C31.3295 472.409 30.9195 472.339 30.5795 472.359C29.5195 472.429 28.4595 472.459 27.4095 472.589C26.9095 472.649 26.4395 472.889 25.9495 473.049C25.8995 472.269 24.5495 471.849 25.3395 470.809C25.5195 470.679 25.4195 470.369 25.4195 470.159ZM36.4795 565.879C36.8795 565.379 37.2495 564.899 37.6695 564.359C35.7895 563.819 37.2095 562.529 37.1595 561.569C37.1395 561.169 37.2995 560.779 37.6795 560.629L40.5595 559.479C40.6795 559.569 40.5295 559.469 40.3895 559.339C39.7695 558.789 38.6795 558.239 39.4795 557.299C40.3595 556.269 41.0395 557.249 41.6795 557.909C41.9295 558.169 42.2895 558.509 42.5795 558.489C44.1395 558.389 45.7195 556.379 45.4395 554.819C45.2595 553.849 45.6895 553.309 46.4895 553.049C47.6595 552.669 48.8495 552.359 50.0595 552.099C52.1795 551.639 52.2895 551.349 52.5295 549.129C52.6695 547.749 53.2195 546.389 53.7695 545.099C54.2895 543.889 55.7495 543.089 55.9095 541.689C55.9595 541.239 55.6495 540.839 55.2295 540.689C53.7295 540.169 52.2495 539.499 50.8495 538.739C49.1295 537.799 47.5695 536.629 45.3895 537.779C44.8895 538.039 43.1095 538.969 42.8695 536.949C42.8695 536.929 42.6395 536.939 42.5195 536.919C41.4295 536.739 41.1495 536.079 41.8495 535.209C42.1995 534.779 42.6895 534.459 43.1595 534.049C42.8195 533.489 42.3495 532.999 42.2195 532.429C41.9795 531.419 41.3995 531.019 40.4595 530.679C38.3695 529.939 36.3495 529.029 35.3795 526.749C35.1995 526.319 34.5095 526.019 33.9895 525.839C32.6695 525.369 31.3195 524.979 30.1095 524.599C29.7995 524.499 29.4695 524.569 29.2095 524.769L28.6595 525.199C28.1995 525.559 27.5295 525.449 27.2095 524.959C26.8895 524.479 26.2395 524.359 25.7795 524.709L25.1895 525.149C24.8695 525.389 24.4395 525.409 24.0995 525.209L22.9695 524.559C24.6295 526.429 25.0495 528.489 23.4495 530.539C21.9295 532.489 22.7495 534.539 22.9095 536.359C23.0795 538.299 24.2995 540.219 25.3695 541.969C26.1595 543.269 27.3195 544.429 28.5195 545.379C30.1095 546.639 31.3195 547.879 31.1095 550.139C30.9995 551.289 31.4795 552.489 31.6195 553.679C31.7695 554.959 32.2595 556.399 31.8695 557.499C31.1195 559.579 33.5595 560.589 33.3495 562.349C33.3195 562.629 33.4495 562.899 33.6495 563.089L36.4795 565.879ZM78.5295 488.239C78.7095 488.719 79.2595 488.929 79.7195 488.699C80.5195 488.289 81.3295 487.289 81.3095 487.079C81.2295 486.509 77.3795 482.499 76.5095 481.379C76.3195 481.519 76.1195 481.659 75.9295 481.799C76.3095 482.379 77.8495 486.379 78.5295 488.239ZM28.2195 469.879C28.8695 470.109 29.5095 470.339 30.1495 470.559C30.2795 470.409 30.4095 470.319 30.4495 470.189C30.7095 469.539 30.9395 468.879 31.1795 468.229C29.5095 467.639 28.8195 468.039 28.2195 469.879Z" stroke="white" stroke-width="0.5" stroke-miterlimit="10"/>
<path d="M50.2295 461.739C51.1195 461.679 52.0095 461.659 52.8895 461.529C53.4395 461.449 54.0095 461.299 54.4995 461.039C55.6395 460.459 56.7495 460.269 57.9495 460.849C58.2495 460.989 58.6595 460.939 59.0195 460.939C59.5395 460.939 61.1595 462.039 61.6895 461.919C62.7295 461.679 63.8195 461.329 64.8495 461.439C65.8895 461.549 65.9595 462.319 65.1295 463.019C64.1795 463.819 64.1995 465.229 64.9495 466.099C65.3395 466.549 65.3595 467.339 65.5395 467.969C64.9595 468.079 64.3695 468.199 63.7795 468.299C63.6395 468.319 63.4995 468.299 63.1695 468.299C63.6295 469.179 64.1995 469.939 64.3895 470.789C64.4795 471.179 63.9195 472.009 63.4795 472.169C62.6595 472.479 61.7095 472.509 60.8095 472.549C59.8095 472.589 59.2095 472.889 58.7195 473.899C58.2995 474.769 57.3995 475.489 56.5495 476.039C55.4695 476.749 54.3395 477.189 54.0095 478.719C53.7095 480.119 51.8295 480.429 50.5595 479.449C49.2595 478.459 48.4895 476.019 48.9895 474.399C49.2395 473.579 49.5595 472.779 49.8795 471.899C49.0995 471.439 48.5995 471.039 49.2995 469.919C49.6595 469.329 49.0495 468.139 48.8695 467.189C47.7595 467.329 46.8195 467.549 45.8795 467.549C44.7695 467.549 44.5795 466.969 45.0395 465.979C45.2395 465.549 45.0295 464.919 45.0095 464.389C46.8495 463.679 48.8595 463.349 50.2295 461.739Z" stroke="white" stroke-width="0.5" stroke-miterlimit="10"/>
<path d="M36.3594 470.969C35.8494 470.399 35.3294 469.829 34.8194 469.259C34.9094 469.119 34.9994 468.979 35.0794 468.849C34.4094 468.849 33.4994 469.109 33.1194 468.779C32.7494 468.439 32.9094 467.509 32.8594 467.069C32.2694 466.749 31.7194 466.439 31.1594 466.139C31.5194 465.739 31.7994 465.169 32.2494 464.979C33.1194 464.599 33.8894 464.789 33.9294 465.669C34.7894 465.889 35.6594 465.869 36.0894 466.289C36.4594 466.649 36.3194 467.519 36.3994 468.169C37.9294 467.759 39.5094 468.209 40.9794 469.339C41.4094 469.669 42.3994 469.689 42.4794 470.019C42.8394 471.469 43.5094 472.639 44.5194 473.729C44.6994 473.919 44.0694 475.129 43.5594 475.569C43.2794 475.809 42.4594 475.429 41.7794 475.309C41.8094 475.469 41.8794 475.839 41.9594 476.209C42.1994 477.349 41.6694 478.069 40.6694 478.479C39.6394 478.899 38.9594 478.389 38.3494 477.599C37.9994 477.139 37.5294 476.779 37.0894 476.379C36.7594 476.079 36.4094 475.809 36.0694 475.529C36.4694 475.249 36.8294 474.829 37.2694 474.729C38.4594 474.439 39.1494 473.679 38.9994 472.619C38.8294 471.459 37.9894 470.939 36.2994 470.939C36.3194 470.919 36.3594 470.969 36.3594 470.969Z" stroke="white" stroke-width="0.5" stroke-miterlimit="10"/>
<path d="M50.2296 461.739C48.8696 463.349 46.8495 463.679 45.0295 464.389C44.2995 464.719 43.5395 464.999 42.8695 465.419C42.4795 465.659 42.0496 466.109 41.9796 466.529C41.8196 467.469 41.2495 467.709 40.4695 467.679C39.8995 467.659 39.3296 467.559 38.7696 467.449C36.5596 467.009 38.6195 464.289 39.7795 463.079C40.7495 462.059 42.7396 462.889 42.6396 462.759C42.0396 461.979 42.5696 461.609 43.1296 461.289C45.1796 460.119 47.4095 460.489 49.5895 460.639C49.8295 460.649 50.0196 461.359 50.2296 461.739Z" stroke="white" stroke-width="0.5" stroke-miterlimit="10"/>
<path d="M93.1794 469.739C92.7194 469.869 92.2994 470.109 91.8894 470.079C90.9394 470.019 88.4994 467.509 88.4294 466.549C88.4094 466.269 88.5994 465.909 88.8194 465.709C88.9794 465.559 89.4494 465.489 89.5694 465.599C90.7094 466.669 91.7994 467.789 92.8894 468.909C92.9994 469.029 93.0094 469.259 93.1794 469.739Z" stroke="white" stroke-width="0.5" stroke-miterlimit="10"/>
<path d="M78.2895 466.809C77.9795 466.689 77.6695 466.719 77.3795 466.619C76.2595 466.249 76.0695 466.269 74.9095 464.989C74.8595 464.629 74.6395 464.129 74.7995 463.929C75.7695 462.669 77.8994 462.279 79.3394 463.019C80.0894 463.409 80.4495 463.909 79.8195 464.739C79.6395 464.969 79.5795 465.389 79.6395 465.679C79.8595 466.739 79.1295 466.699 78.2895 466.809Z" stroke="white" stroke-width="0.5" stroke-miterlimit="10"/>
<path d="M67.7895 473.619C68.5395 474.209 69.4495 474.579 69.7095 475.209C70.1495 476.289 69.1895 476.829 68.2895 477.129C67.7095 477.319 67.0395 477.519 66.4895 477.379C65.8395 477.219 65.2794 476.709 64.6794 476.359C65.0494 475.929 65.3695 475.439 65.7895 475.069C66.3295 474.609 66.9495 474.219 67.7895 473.619Z" stroke="white" stroke-width="0.5" stroke-miterlimit="10"/>
<path d="M75.5394 485.549C75.9694 486.029 75.9895 486.769 75.5795 487.279C75.0095 487.979 74.5094 488.619 73.8794 489.089C73.1394 489.629 72.4494 489.039 72.6594 488.099C72.8394 487.279 73.1195 486.439 73.5195 485.709C73.7395 485.309 74.4495 484.769 74.7095 484.879C75.0095 484.989 75.2494 485.229 75.5394 485.549Z" stroke="white" stroke-width="0.5" stroke-miterlimit="10"/>
<path d="M261.539 417.869C264.146 417.869 266.259 415.756 266.259 413.149C266.259 410.542 264.146 408.429 261.539 408.429C258.933 408.429 256.819 410.542 256.819 413.149C256.819 415.756 258.933 417.869 261.539 417.869Z" stroke="white" stroke-width="0.5" stroke-miterlimit="10"/>
<path d="M231.549 398.449C234.156 398.449 236.269 396.336 236.269 393.729C236.269 391.122 234.156 389.009 231.549 389.009C228.943 389.009 226.829 391.122 226.829 393.729C226.829 396.336 228.943 398.449 231.549 398.449Z" stroke="white" stroke-width="0.5" stroke-miterlimit="10"/>
<path d="M276.539 384.379C279.146 384.379 281.259 382.266 281.259 379.659C281.259 377.052 279.146 374.939 276.539 374.939C273.933 374.939 271.819 377.052 271.819 379.659C271.819 382.266 273.933 384.379 276.539 384.379Z" stroke="white" stroke-width="0.5" stroke-miterlimit="10"/>
<path d="M274.75 384.029L263.49 408.849" stroke="white" stroke-width="0.5" stroke-miterlimit="10"/>
<path d="M257.369 410.949L235.569 396.209" stroke="white" stroke-width="0.5" stroke-miterlimit="10"/>
<path d="M363.439 349.159L366.989 349.189L370.549 349.149L374.119 349.119L373.879 352.489L373.759 355.859L373.599 359.219L373.459 362.589L373.389 365.959L373.319 369.329L373.019 372.689L372.999 376.059L372.779 379.429L372.559 382.799L372.589 386.169L372.319 389.539L372.249 392.919L372.079 396.279L371.909 399.649L371.739 403.019L371.599 406.399L371.539 409.779L371.269 413.099L367.849 413.239L364.379 413.059L360.909 413.199L357.439 413.119L353.959 413.139L350.489 413.239L347.019 413.129L343.539 413.069L340.069 413.249L336.589 413.239L333.119 413.249L329.639 413.199L326.169 413.179L322.689 413.129L319.209 413.149L315.729 413.069L312.279 413.119L312.119 409.779L311.949 406.419L311.779 403.049L311.669 399.689L311.409 396.319L311.199 392.959L311.009 389.589L310.939 386.219L310.769 382.849L310.539 379.489L310.459 376.109L310.199 372.739L310.099 369.369L309.909 365.999L309.739 362.629L309.599 359.259L309.479 355.889L309.229 352.509L309.089 349.169L312.929 349.039L316.809 349.199L320.679 349.219" stroke="white" stroke-width="0.5" stroke-miterlimit="10"/>
<path d="M320.419 348.959L316.859 348.969L313.299 349.139L309.729 348.989L306.149 349.049L306.189 345.319L306.059 341.589L306.089 337.799L309.609 337.769H313.049L316.489 337.879L319.929 337.949L323.369 337.899L326.809 337.919L330.249 337.799L333.679 337.909L337.129 337.839L340.559 337.819L344.009 337.879L347.449 337.859L350.889 337.889L354.329 337.819L357.779 337.939L361.219 337.879L364.659 337.809L368.099 337.909L371.549 337.799L374.999 337.859L378.429 337.889L378.449 341.589L378.489 345.309L378.389 348.979L374.719 348.959L370.979 348.949L367.239 349.119L363.499 349.089" stroke="white" stroke-width="0.5" stroke-miterlimit="10"/>
<path d="M357.739 326.399L354.289 326.389L350.809 326.469L347.319 326.409L343.849 326.429L340.369 326.459L336.879 326.409L333.399 326.419L329.909 326.379L326.439 326.409V322.769L326.429 319.119L329.899 319.099L333.379 319.129L336.869 319.099H340.339L343.829 319.159L347.309 319.129L350.789 319.119L354.279 319.139L357.799 319.089L357.749 322.769L357.739 326.399Z" stroke="white" stroke-width="0.5" stroke-miterlimit="10"/>
<path d="M330.629 323.279L333.959 323.269L337.289 323.239L340.629 323.299L343.969 323.279L347.299 323.289L350.639 323.239L353.989 323.299" stroke="white" stroke-width="0.5" stroke-miterlimit="10"/>
<path d="M321.339 337.619L321.279 340.979L321.309 344.339L321.199 347.689L321.289 351.059V354.419L321.259 357.779L321.199 361.149L321.269 364.529L324.229 362.849L327.239 361.289L330.169 359.599L333.129 357.959L336.119 356.359L339.089 354.709L342.089 353.039L345.049 354.679L348.049 356.129L351.019 357.649L353.949 359.249L356.959 360.709L359.919 362.259L362.869 363.679L362.959 360.519L362.869 357.279V354.049L362.849 350.819L362.889 347.579L362.839 344.349L362.869 341.109L362.899 337.869" stroke="white" stroke-width="0.5" stroke-miterlimit="10"/>
<path d="M302.069 326.559L305.579 326.469L309.069 326.559L312.559 326.689L316.039 326.639L319.529 326.579L323.019 326.699L326.509 326.489L329.999 326.599L333.489 326.569L336.989 326.689L340.479 326.629L343.969 326.529L347.459 326.599L350.949 326.639L354.449 326.509L357.949 326.679L361.449 326.609L364.879 326.499L368.319 326.649L371.769 326.609L375.209 326.499L378.659 326.469L382.079 326.599L382.149 330.299L382.219 334.029L382.129 337.779L378.619 337.739L375.149 337.839L371.669 337.819L368.189 337.639L364.719 337.849L361.239 337.859L357.759 337.729L354.289 337.789H350.809L347.329 337.639L343.859 337.749L340.379 337.659L336.899 337.759L333.419 337.739L329.939 337.769L326.459 337.869L322.979 337.689L319.509 337.789L316.029 337.699L312.539 337.659L309.059 337.709L305.579 337.789L302.139 337.699L302.099 334.029L302.069 330.309V326.559Z" stroke="white" stroke-width="0.5" stroke-miterlimit="10"/>
<path d="M364.939 326.769V337.949" stroke="white" stroke-width="0.5" stroke-miterlimit="10"/>
<path d="M318.76 326.769V337.949" stroke="white" stroke-width="0.5" stroke-miterlimit="10"/>
<path d="M370.699 326.769L363.449 307.779C363.119 306.909 362.379 306.259 361.479 306.039L349.849 303.189" stroke="white" stroke-width="0.5" stroke-miterlimit="10"/>
<path d="M347.929 304.869C349.178 304.869 350.189 303.857 350.189 302.609C350.189 301.361 349.178 300.349 347.929 300.349C346.681 300.349 345.669 301.361 345.669 302.609C345.669 303.857 346.681 304.869 347.929 304.869Z" stroke="white" stroke-width="0.5" stroke-miterlimit="10"/>
</svg>
