<svg width="257" height="80" viewBox="0 0 257 80" fill="none" xmlns="http://www.w3.org/2000/svg">
<path d="M1.73145 35.8252H3.59469V51.5386H1.73145V35.8252Z" fill="white"/>
<path d="M6.68907 40.6533H8.46463V42.2773H8.55231C8.8592 41.7214 9.34145 41.2532 9.99906 40.8728C10.6567 40.4924 11.3581 40.3022 12.1034 40.3022C13.4333 40.3022 14.4416 40.6899 15.1285 41.4653C15.8299 42.2408 16.1806 43.3015 16.1806 44.6475V51.5386H14.3393V44.9328C14.3393 42.9723 13.426 41.992 11.5993 41.992C11.0147 41.992 10.4886 42.1603 10.021 42.4968C9.55335 42.8333 9.18801 43.2722 8.92496 43.8136C8.67653 44.3549 8.55231 44.9255 8.55231 45.5254V51.5386H6.68907V40.6533Z" fill="white"/>
<path d="M22.4569 51.7141C22.0185 51.7141 21.6093 51.641 21.2294 51.4947C20.864 51.3484 20.5498 51.1508 20.2868 50.9021C19.9945 50.6241 19.7753 50.3023 19.6292 49.9365C19.4977 49.5561 19.4319 49.1099 19.4319 48.5978V42.3432H17.5029V40.6533H19.4319V37.4053H21.2732V40.6533H23.9475V42.3432H21.2732V48.1369C21.2732 48.7514 21.3974 49.205 21.6459 49.4976C21.8943 49.8195 22.2743 49.9804 22.7857 49.9804C23.2388 49.9804 23.6333 49.878 23.9694 49.6731V51.4727C23.7356 51.5605 23.5091 51.619 23.2899 51.6483C23.0853 51.6922 22.8076 51.7141 22.4569 51.7141Z" fill="white"/>
<path d="M30.4784 51.8897C29.4263 51.8897 28.4837 51.641 27.6507 51.1435C26.8323 50.6461 26.1893 49.9584 25.7217 49.0806C25.2541 48.2028 25.0202 47.2079 25.0202 46.0959C25.0202 45.0425 25.2395 44.0769 25.6779 43.1991C26.1163 42.3066 26.7374 41.6043 27.5411 41.0923C28.3595 40.5656 29.2947 40.3022 30.3469 40.3022C31.3991 40.3022 32.3198 40.5436 33.1089 41.0264C33.9127 41.4946 34.5264 42.1603 34.9502 43.0235C35.374 43.8867 35.5859 44.8816 35.5859 46.0082C35.5859 46.213 35.5713 46.3593 35.5421 46.4471H26.9054C26.9346 47.2664 27.1319 47.9614 27.4973 48.532C27.8626 49.0879 28.3156 49.5049 28.8563 49.7829C29.4117 50.0609 29.9816 50.1998 30.5661 50.1998C31.9398 50.1998 32.9993 49.5268 33.7446 48.1808L35.3886 48.9709C34.921 49.8487 34.2707 50.5583 33.4377 51.0996C32.6193 51.6263 31.6329 51.8897 30.4784 51.8897ZM33.6131 44.8889C33.5839 44.45 33.4596 44.0111 33.2404 43.5722C33.0212 43.1332 32.6632 42.7602 32.1663 42.4529C31.6841 42.1457 31.063 41.992 30.3031 41.992C29.4847 41.992 28.776 42.2554 28.1768 42.7821C27.5776 43.3088 27.1977 44.0111 27.0369 44.8889H33.6131Z" fill="white"/>
<path d="M37.686 40.6533H39.4616V42.431H39.5492C39.7538 41.8311 40.1703 41.3337 40.7987 40.9386C41.4417 40.529 42.0774 40.3242 42.7058 40.3242C43.1588 40.3242 43.5826 40.39 43.9772 40.5217V42.5407C43.5826 42.3212 43.0711 42.2115 42.4428 42.2115C41.9313 42.2115 41.449 42.3651 40.996 42.6724C40.5576 42.965 40.2069 43.36 39.9438 43.8575C39.6808 44.3549 39.5492 44.8962 39.5492 45.4815V51.5386H37.686V40.6533Z" fill="white"/>
<path d="M45.7135 40.6533H47.4891V42.2773H47.5768C47.8837 41.7214 48.3659 41.2532 49.0235 40.8728C49.6811 40.4924 50.3826 40.3022 51.1279 40.3022C52.4577 40.3022 53.4661 40.6899 54.1529 41.4653C54.8544 42.2408 55.2051 43.3015 55.2051 44.6475V51.5386H53.3638V44.9328C53.3638 42.9723 52.4504 41.992 50.6237 41.992C50.0392 41.992 49.5131 42.1603 49.0454 42.4968C48.5778 42.8333 48.2125 43.2722 47.9494 43.8136C47.701 44.3549 47.5768 44.9255 47.5768 45.5254V51.5386H45.7135V40.6533Z" fill="white"/>
<path d="M61.2733 51.8897C60.4842 51.8897 59.7681 51.7361 59.1251 51.4288C58.4967 51.107 57.9998 50.668 57.6345 50.1121C57.2838 49.5415 57.1084 48.905 57.1084 48.2028C57.1084 47.0469 57.5395 46.1472 58.4017 45.5034C59.2785 44.8597 60.3965 44.5378 61.7556 44.5378C62.4278 44.5378 63.0343 44.6109 63.575 44.7572C64.1157 44.9035 64.5468 45.0645 64.8683 45.2401V44.6695C64.8683 44.1428 64.7294 43.6746 64.4518 43.2649C64.1887 42.8406 63.8307 42.5188 63.3777 42.2993C62.9246 42.0652 62.4351 41.9482 61.909 41.9482C60.6668 41.9482 59.7169 42.4529 59.0593 43.4624L57.503 42.431C57.956 41.758 58.5552 41.2386 59.3005 40.8728C60.0458 40.4924 60.886 40.3022 61.8213 40.3022C63.3119 40.3022 64.4883 40.7046 65.3505 41.5092C66.2127 42.3139 66.6438 43.3966 66.6438 44.7572V51.5386H64.8683V49.9365H64.7806C64.4299 50.4925 63.9549 50.9606 63.3558 51.341C62.7566 51.7068 62.0624 51.8897 61.2733 51.8897ZM61.4267 50.2437C62.0113 50.2437 62.5666 50.0901 63.0927 49.7829C63.6188 49.4756 64.0426 49.0587 64.3641 48.532C64.7002 48.0052 64.8683 47.4347 64.8683 46.8202C64.0499 46.2935 63.1073 46.0301 62.0405 46.0301C61.1199 46.0301 60.3819 46.2423 59.8266 46.6665C59.2858 47.0762 59.0155 47.6029 59.0155 48.2467C59.0155 48.8319 59.2566 49.3147 59.7389 49.6951C60.2211 50.0609 60.7837 50.2437 61.4267 50.2437Z" fill="white"/>
<path d="M73.1695 51.7141C72.731 51.7141 72.3219 51.641 71.9419 51.4947C71.5766 51.3484 71.2624 51.1508 70.9993 50.9021C70.7071 50.6241 70.4878 50.3023 70.3417 49.9365C70.2102 49.5561 70.1444 49.1099 70.1444 48.5978V42.3432H68.2154V40.6533H70.1444V37.4053H71.9857V40.6533H74.66V42.3432H71.9857V48.1369C71.9857 48.7514 72.11 49.205 72.3584 49.4976C72.6068 49.8195 72.9868 49.9804 73.4983 49.9804C73.9513 49.9804 74.3459 49.878 74.682 49.6731V51.4727C74.4481 51.5605 74.2216 51.619 74.0024 51.6483C73.7978 51.6922 73.5202 51.7141 73.1695 51.7141Z" fill="white"/>
<path d="M78.042 38.371C77.6766 38.371 77.3624 38.2393 77.0994 37.9759C76.8363 37.7126 76.7048 37.398 76.7048 37.0323C76.7048 36.6665 76.8363 36.3519 77.0994 36.0886C77.3624 35.8252 77.6766 35.6936 78.042 35.6936C78.4073 35.6936 78.7215 35.8252 78.9845 36.0886C79.2476 36.3519 79.3791 36.6665 79.3791 37.0323C79.3791 37.398 79.2476 37.7126 78.9845 37.9759C78.7361 38.2393 78.4219 38.371 78.042 38.371ZM77.1213 40.6533H78.9626V51.5386H77.1213V40.6533Z" fill="white"/>
<path d="M86.6951 51.8897C85.6283 51.8897 84.6711 51.641 83.8235 51.1435C82.9759 50.6315 82.311 49.9365 81.8287 49.0587C81.3611 48.1662 81.1273 47.1786 81.1273 46.0959C81.1273 45.0133 81.3611 44.033 81.8287 43.1552C82.311 42.2627 82.9759 41.5678 83.8235 41.0703C84.6711 40.5582 85.6283 40.3022 86.6951 40.3022C87.7619 40.3022 88.7191 40.5582 89.5667 41.0703C90.4289 41.5678 91.0938 42.2627 91.5614 43.1552C92.0437 44.033 92.2848 45.0133 92.2848 46.0959C92.2848 47.1786 92.0437 48.1662 91.5614 49.0587C91.0938 49.9365 90.4289 50.6315 89.5667 51.1435C88.7191 51.641 87.7619 51.8897 86.6951 51.8897ZM86.6951 50.1998C87.3527 50.1998 87.9665 50.0316 88.5364 49.6951C89.1063 49.3586 89.5594 48.8831 89.8955 48.2686C90.2462 47.6395 90.4216 46.9153 90.4216 46.0959C90.4216 45.2766 90.2462 44.5597 89.8955 43.9452C89.5594 43.3161 89.1063 42.8333 88.5364 42.4968C87.9665 42.1603 87.3527 41.992 86.6951 41.992C86.0521 41.992 85.4456 42.1603 84.8757 42.4968C84.3057 42.8333 83.8454 43.3161 83.4947 43.9452C83.1586 44.5597 82.9905 45.2766 82.9905 46.0959C82.9905 46.9153 83.1586 47.6395 83.4947 48.2686C83.8454 48.8831 84.3057 49.3586 84.8757 49.6951C85.4456 50.0316 86.0521 50.1998 86.6951 50.1998Z" fill="white"/>
<path d="M94.1784 40.6533H95.9539V42.2773H96.0416C96.3485 41.7214 96.8307 41.2532 97.4883 40.8728C98.146 40.4924 98.8474 40.3022 99.5927 40.3022C100.923 40.3022 101.931 40.6899 102.618 41.4653C103.319 42.2408 103.67 43.3015 103.67 44.6475V51.5386H101.829V44.9328C101.829 42.9723 100.915 41.992 99.0885 41.992C98.504 41.992 97.9779 42.1603 97.5103 42.4968C97.0426 42.8333 96.6773 43.2722 96.4142 43.8136C96.1658 44.3549 96.0416 44.9255 96.0416 45.5254V51.5386H94.1784V40.6533Z" fill="white"/>
<path d="M109.738 51.8897C108.949 51.8897 108.233 51.7361 107.59 51.4288C106.962 51.107 106.465 50.668 106.099 50.1121C105.749 49.5415 105.573 48.905 105.573 48.2028C105.573 47.0469 106.004 46.1472 106.867 45.5034C107.743 44.8597 108.861 44.5378 110.22 44.5378C110.893 44.5378 111.499 44.6109 112.04 44.7572C112.58 44.9035 113.012 45.0645 113.333 45.2401V44.6695C113.333 44.1428 113.194 43.6746 112.917 43.2649C112.654 42.8406 112.296 42.5188 111.843 42.2993C111.389 42.0652 110.9 41.9482 110.374 41.9482C109.132 41.9482 108.182 42.4529 107.524 43.4624L105.968 42.431C106.421 41.758 107.02 41.2386 107.765 40.8728C108.511 40.4924 109.351 40.3022 110.286 40.3022C111.777 40.3022 112.953 40.7046 113.815 41.5092C114.678 42.3139 115.109 43.3966 115.109 44.7572V51.5386H113.333V49.9365H113.245C112.895 50.4925 112.42 50.9606 111.821 51.341C111.221 51.7068 110.527 51.8897 109.738 51.8897ZM109.892 50.2437C110.476 50.2437 111.031 50.0901 111.558 49.7829C112.084 49.4756 112.507 49.0587 112.829 48.532C113.165 48.0052 113.333 47.4347 113.333 46.8202C112.515 46.2935 111.572 46.0301 110.505 46.0301C109.585 46.0301 108.847 46.2423 108.291 46.6665C107.751 47.0762 107.48 47.6029 107.48 48.2467C107.48 48.8319 107.721 49.3147 108.204 49.6951C108.686 50.0609 109.249 50.2437 109.892 50.2437Z" fill="white"/>
<path d="M117.662 35.8252H119.525V51.5386H117.662V35.8252Z" fill="white"/>
<path d="M125.473 35.8252H127.534L130.383 47.3688L130.647 48.4442H130.734L131.063 47.3688L134.57 35.8252H136.499L139.853 47.3688L140.182 48.4442H140.27L143.36 35.8252H145.421L141.19 51.5386H139.261L135.929 40.1705L135.579 38.9416H135.491L135.118 40.1705L131.655 51.5386H129.726L125.473 35.8252Z" fill="white"/>
<path d="M150.872 51.8897C149.806 51.8897 148.848 51.641 148.001 51.1435C147.153 50.6315 146.488 49.9365 146.006 49.0587C145.538 48.1662 145.305 47.1786 145.305 46.0959C145.305 45.0133 145.538 44.033 146.006 43.1552C146.488 42.2627 147.153 41.5678 148.001 41.0703C148.848 40.5582 149.806 40.3022 150.872 40.3022C151.939 40.3022 152.896 40.5582 153.744 41.0703C154.606 41.5678 155.271 42.2627 155.739 43.1552C156.221 44.033 156.462 45.0133 156.462 46.0959C156.462 47.1786 156.221 48.1662 155.739 49.0587C155.271 49.9365 154.606 50.6315 153.744 51.1435C152.896 51.641 151.939 51.8897 150.872 51.8897ZM150.872 50.1998C151.53 50.1998 152.144 50.0316 152.714 49.6951C153.284 49.3586 153.737 48.8831 154.073 48.2686C154.424 47.6395 154.599 46.9153 154.599 46.0959C154.599 45.2766 154.424 44.5597 154.073 43.9452C153.737 43.3161 153.284 42.8333 152.714 42.4968C152.144 42.1603 151.53 41.992 150.872 41.992C150.229 41.992 149.623 42.1603 149.053 42.4968C148.483 42.8333 148.023 43.3161 147.672 43.9452C147.336 44.5597 147.168 45.2766 147.168 46.0959C147.168 46.9153 147.336 47.6395 147.672 48.2686C148.023 48.8831 148.483 49.3586 149.053 49.6951C149.623 50.0316 150.229 50.1998 150.872 50.1998Z" fill="white"/>
<path d="M158.356 40.6533H160.131V42.2773H160.219C160.526 41.7214 161.001 41.2532 161.644 40.8728C162.301 40.4924 162.966 40.3022 163.639 40.3022C164.457 40.3022 165.158 40.4997 165.743 40.8948C166.342 41.2751 166.773 41.8019 167.036 42.4749C167.445 41.8165 167.971 41.2898 168.614 40.8948C169.257 40.4997 169.995 40.3022 170.828 40.3022C172.1 40.3022 173.057 40.6899 173.7 41.4653C174.343 42.2408 174.665 43.3088 174.665 44.6695V51.5386H172.801V44.9548C172.801 43.8867 172.597 43.1259 172.188 42.6724C171.793 42.2188 171.179 41.992 170.346 41.992C169.791 41.992 169.287 42.1603 168.834 42.4968C168.395 42.8187 168.052 43.2503 167.803 43.7916C167.555 44.333 167.431 44.9036 167.431 45.5034V51.5386H165.589V44.9548C165.589 43.8867 165.385 43.1259 164.976 42.6724C164.567 42.2188 163.953 41.992 163.134 41.992C162.564 41.992 162.06 42.1603 161.622 42.4968C161.183 42.8333 160.84 43.2722 160.592 43.8136C160.343 44.3549 160.219 44.9328 160.219 45.5473V51.5386H158.356V40.6533Z" fill="white"/>
<path d="M182.145 51.8897C181.093 51.8897 180.15 51.641 179.317 51.1435C178.499 50.6461 177.856 49.9584 177.388 49.0806C176.921 48.2028 176.687 47.2079 176.687 46.0959C176.687 45.0425 176.906 44.0769 177.344 43.1991C177.783 42.3066 178.404 41.6043 179.208 41.0923C180.026 40.5656 180.961 40.3022 182.014 40.3022C183.066 40.3022 183.986 40.5436 184.776 41.0264C185.579 41.4946 186.193 42.1603 186.617 43.0235C187.041 43.8867 187.253 44.8816 187.253 46.0082C187.253 46.213 187.238 46.3593 187.209 46.4471H178.572C178.601 47.2664 178.799 47.9614 179.164 48.532C179.529 49.0879 179.982 49.5049 180.523 49.7829C181.078 50.0609 181.648 50.1998 182.233 50.1998C183.606 50.1998 184.666 49.5268 185.411 48.1808L187.055 48.9709C186.588 49.8487 185.937 50.5583 185.104 51.0996C184.286 51.6263 183.3 51.8897 182.145 51.8897ZM185.28 44.8889C185.25 44.45 185.126 44.0111 184.907 43.5722C184.688 43.1332 184.33 42.7602 183.833 42.4529C183.351 42.1457 182.73 41.992 181.97 41.992C181.151 41.992 180.443 42.2554 179.843 42.7821C179.244 43.3088 178.864 44.0111 178.704 44.8889H185.28Z" fill="white"/>
<path d="M189.353 40.6533H191.128V42.2773H191.216C191.523 41.7214 192.005 41.2532 192.663 40.8728C193.32 40.4924 194.022 40.3022 194.767 40.3022C196.097 40.3022 197.105 40.6899 197.792 41.4653C198.494 42.2408 198.844 43.3015 198.844 44.6475V51.5386H197.003V44.9328C197.003 42.9723 196.09 41.992 194.263 41.992C193.678 41.992 193.152 42.1603 192.685 42.4968C192.217 42.8333 191.852 43.2722 191.589 43.8136C191.34 44.3549 191.216 44.9255 191.216 45.5254V51.5386H189.353V40.6533Z" fill="white"/>
<path d="M200.777 39.7755L201.851 38.1296C201.588 38.0857 201.354 37.954 201.15 37.7345C200.945 37.5004 200.843 37.2151 200.843 36.8786C200.843 36.4836 200.974 36.1544 201.237 35.8911C201.515 35.6131 201.844 35.4741 202.224 35.4741C202.618 35.4741 202.947 35.6131 203.21 35.8911C203.488 36.1544 203.627 36.4836 203.627 36.8786C203.627 37.1127 203.576 37.3395 203.473 37.559C203.386 37.7784 203.24 38.0418 203.035 38.349L201.654 40.3461L200.777 39.7755Z" fill="white"/>
<path d="M208.794 51.8897C207.64 51.8897 206.661 51.5971 205.857 51.0119C205.053 50.4266 204.491 49.7024 204.169 48.8392L205.813 48.115C206.105 48.8026 206.515 49.3293 207.041 49.6951C207.581 50.0609 208.166 50.2437 208.794 50.2437C209.496 50.2437 210.073 50.0901 210.526 49.7829C210.994 49.4756 211.227 49.1025 211.227 48.6636C211.227 48.2393 211.052 47.8882 210.701 47.6102C210.365 47.3322 209.781 47.0908 208.948 46.886L207.457 46.5129C206.639 46.3227 205.937 45.9789 205.353 45.4815C204.783 44.984 204.498 44.3256 204.498 43.5063C204.498 42.8333 204.688 42.2554 205.068 41.7726C205.462 41.2898 205.981 40.924 206.624 40.6753C207.267 40.4266 207.969 40.3022 208.728 40.3022C209.664 40.3022 210.511 40.5217 211.271 40.9606C212.046 41.3849 212.594 41.992 212.915 42.7821L211.271 43.4844C211.037 42.9577 210.679 42.57 210.197 42.3212C209.73 42.0725 209.203 41.9482 208.619 41.9482C208.049 41.9482 207.53 42.0871 207.063 42.3651C206.609 42.6431 206.383 43.0016 206.383 43.4405C206.383 43.8209 206.529 44.1208 206.821 44.3403C207.128 44.5597 207.611 44.7572 208.268 44.9328L209.89 45.3278C210.972 45.6058 211.775 46.0228 212.302 46.5788C212.842 47.1201 213.113 47.7712 213.113 48.532C213.113 49.1611 212.93 49.7317 212.565 50.2437C212.199 50.7558 211.688 51.1582 211.03 51.4508C210.373 51.7434 209.627 51.8897 208.794 51.8897Z" fill="white"/>
<path d="M220.572 35.8252H225.329C226.937 35.8252 228.34 36.1617 229.538 36.8347C230.736 37.4931 231.657 38.4149 232.3 39.5999C232.943 40.785 233.264 42.1457 233.264 43.6819C233.264 45.2181 232.943 46.5788 232.3 47.7638C231.657 48.9489 230.736 49.878 229.538 50.551C228.34 51.2094 226.937 51.5386 225.329 51.5386H220.572V35.8252ZM225.329 49.7609C227.185 49.7609 228.654 49.2269 229.735 48.1589C230.817 47.0908 231.357 45.5985 231.357 43.6819C231.357 41.7653 230.817 40.2729 229.735 39.2049C228.654 38.1369 227.185 37.6029 225.329 37.6029H222.436V49.7609H225.329Z" fill="white"/>
<path d="M239.099 51.8897C238.31 51.8897 237.594 51.7361 236.951 51.4288C236.322 51.107 235.826 50.668 235.46 50.1121C235.109 49.5415 234.934 48.905 234.934 48.2028C234.934 47.0469 235.365 46.1472 236.227 45.5034C237.104 44.8597 238.222 44.5378 239.581 44.5378C240.253 44.5378 240.86 44.6109 241.401 44.7572C241.941 44.9035 242.372 45.0645 242.694 45.2401V44.6695C242.694 44.1428 242.555 43.6746 242.277 43.2649C242.014 42.8406 241.656 42.5188 241.203 42.2993C240.75 42.0652 240.261 41.9482 239.735 41.9482C238.493 41.9482 237.543 42.4529 236.885 43.4624L235.329 42.431C235.782 41.758 236.381 41.2386 237.126 40.8728C237.871 40.4924 238.712 40.3022 239.647 40.3022C241.138 40.3022 242.314 40.7046 243.176 41.5092C244.038 42.3139 244.469 43.3966 244.469 44.7572V51.5386H242.694V49.9365H242.606C242.256 50.4925 241.781 50.9606 241.181 51.341C240.582 51.7068 239.888 51.8897 239.099 51.8897ZM239.252 50.2437C239.837 50.2437 240.392 50.0901 240.918 49.7829C241.444 49.4756 241.868 49.0587 242.19 48.532C242.526 48.0052 242.694 47.4347 242.694 46.8202C241.876 46.2935 240.933 46.0301 239.866 46.0301C238.946 46.0301 238.208 46.2423 237.652 46.6665C237.112 47.0762 236.841 47.6029 236.841 48.2467C236.841 48.8319 237.082 49.3147 237.565 49.6951C238.047 50.0609 238.609 50.2437 239.252 50.2437Z" fill="white"/>
<path d="M250.118 50.8363L245.603 40.6533H247.619L250.995 48.6636H251.039L254.305 40.6533H256.322L249.526 56.2789H247.619L250.118 50.8363Z" fill="white"/>
<path d="M1.17599 68.5373H2.44159V78.003H7.11684V79.2104H1.17599V68.5373Z" fill="white"/>
<path d="M11.8045 68.5373H13.2339L17.2838 79.2104H15.8842L14.8271 76.2738H10.2263L9.15424 79.2104H7.75464L11.8045 68.5373ZM14.3804 75.0813L12.9659 71.2354L12.549 70.0876H12.4894L12.0577 71.2354L10.6581 75.0813H14.3804Z" fill="white"/>
<path d="M19.8975 69.7447H16.9047V68.5373H24.1409V69.7447H21.1482V79.2104H19.8975V69.7447Z" fill="white"/>
<path d="M27.8135 68.5373H29.2429L33.2928 79.2104H31.8932L30.836 76.2738H26.2352L25.1632 79.2104H23.7636L27.8135 68.5373ZM30.3893 75.0813L28.9749 71.2354L28.558 70.0876H28.4984L28.0666 71.2354L26.667 75.0813H30.3893Z" fill="white"/>
<path d="M34.677 68.5373H36.5084L39.918 77.2875H39.9776L43.3724 68.5373H45.2038V79.2104H43.9382V72.4279L43.9977 70.4006H43.9382L40.469 79.2104H39.4118L35.9426 70.4006H35.883L35.9426 72.4279V79.2104H34.677V68.5373Z" fill="white"/>
<path d="M50.4992 77.9434C50.807 77.6353 51.4174 77.0192 52.3306 76.0949C53.2439 75.1608 53.8791 74.4999 54.2365 74.1124C54.7427 73.5757 55.0852 73.1534 55.2638 72.8453C55.4425 72.5273 55.5318 72.1496 55.5318 71.7124C55.5318 71.4142 55.4574 71.136 55.3085 70.8776C55.1596 70.6093 54.9363 70.3956 54.6385 70.2366C54.3506 70.0677 54.0032 69.9832 53.5962 69.9832C53.0602 69.9832 52.6284 70.1422 52.3009 70.4602C51.9733 70.7683 51.7599 71.1062 51.6606 71.4739L50.5141 71.0118C50.6134 70.6938 50.7921 70.3658 51.0502 70.0279C51.3082 69.6801 51.6557 69.3869 52.0924 69.1484C52.5292 68.9 53.0404 68.7758 53.626 68.7758C54.2514 68.7758 54.8072 68.9099 55.2936 69.1782C55.78 69.4466 56.1572 69.8043 56.4252 70.2515C56.6932 70.6987 56.8272 71.1807 56.8272 71.6975C56.8272 72.7509 56.2763 73.8291 55.1745 74.9322L52.1371 78.003H56.9463V79.2104H50.4992V77.9434Z" fill="white"/>
<path d="M62.4612 79.4489C61.6572 79.4489 60.9425 79.2154 60.3171 78.7483C59.7017 78.2713 59.2253 77.6303 58.8878 76.8254C58.5602 76.0105 58.3964 75.1061 58.3964 74.1124C58.3964 73.1186 58.5602 72.2192 58.8878 71.4142C59.2253 70.5994 59.7017 69.9584 60.3171 69.4913C60.9326 69.0143 61.6473 68.7758 62.4612 68.7758C63.2652 68.7758 63.975 69.0143 64.5904 69.4913C65.2058 69.9584 65.6823 70.5994 66.0198 71.4142C66.3572 72.2192 66.526 73.1186 66.526 74.1124C66.526 75.1061 66.3572 76.0105 66.0198 76.8254C65.6823 77.6303 65.2058 78.2713 64.5904 78.7483C63.975 79.2154 63.2652 79.4489 62.4612 79.4489ZM62.4612 78.2415C63.0171 78.2415 63.5035 78.0626 63.9204 77.7049C64.3472 77.3372 64.6748 76.8403 64.9031 76.2142C65.1314 75.5881 65.2455 74.8875 65.2455 74.1124C65.2455 73.3372 65.1314 72.6366 64.9031 72.0105C64.6748 71.3844 64.3472 70.8925 63.9204 70.5348C63.5035 70.1671 63.0171 69.9832 62.4612 69.9832C61.8954 69.9832 61.4041 70.1671 60.9872 70.5348C60.5703 70.8925 60.2477 71.3844 60.0194 72.0105C59.7911 72.6366 59.6769 73.3372 59.6769 74.1124C59.6769 74.8875 59.7911 75.5881 60.0194 76.2142C60.2477 76.8403 60.5703 77.3372 60.9872 77.7049C61.4041 78.0626 61.8954 78.2415 62.4612 78.2415Z" fill="white"/>
<path d="M67.7587 77.9434C68.0664 77.6353 68.6768 77.0192 69.5901 76.0949C70.5033 75.1608 71.1385 74.4999 71.4959 74.1124C72.0021 73.5757 72.3446 73.1534 72.5233 72.8453C72.7019 72.5273 72.7913 72.1496 72.7913 71.7124C72.7913 71.4142 72.7168 71.136 72.5679 70.8776C72.419 70.6093 72.1957 70.3956 71.8979 70.2366C71.61 70.0677 71.2626 69.9832 70.8557 69.9832C70.3196 69.9832 69.8878 70.1422 69.5603 70.4602C69.2327 70.7683 69.0193 71.1062 68.92 71.4739L67.7736 71.0118C67.8728 70.6938 68.0515 70.3658 68.3096 70.0279C68.5677 69.6801 68.9151 69.3869 69.3518 69.1484C69.7886 68.9 70.2998 68.7758 70.8854 68.7758C71.5108 68.7758 72.0666 68.9099 72.553 69.1782C73.0394 69.4466 73.4166 69.8043 73.6846 70.2515C73.9526 70.6987 74.0866 71.1807 74.0866 71.6975C74.0866 72.7509 73.5357 73.8291 72.4339 74.9322L69.3965 78.003H74.2058V79.2104H67.7587V77.9434Z" fill="white"/>
<path d="M77.8927 70.7882L76.106 72.0701L75.436 71.1012L78.3394 69.0143H79.1434V79.2104H77.8927V70.7882Z" fill="white"/>
<path d="M40.3377 5.61444H41.9259L44.1221 14.5046L44.3247 15.3328H44.3909L44.6432 14.5046L47.344 5.61444H48.8288L51.4137 14.5046L51.666 15.3328H51.7322L54.1145 5.61444H55.7027L52.4436 17.7178H50.9588L48.3945 8.9643L48.1257 8.01607H48.0595L47.7741 8.9643L45.1064 17.7178H43.6216L40.3377 5.61444Z" fill="white"/>
<path d="M57.7789 17.3746C57.1047 16.9688 56.5753 16.418 56.199 15.7183C55.8226 15.0185 55.6324 14.2483 55.6324 13.4036C55.6324 12.5589 55.8226 11.7846 56.199 11.0889C56.5753 10.3933 57.1006 9.83841 57.7789 9.43262C58.4531 9.02682 59.2141 8.82393 60.0578 8.82393C60.9015 8.82393 61.6625 9.02682 62.3367 9.43262C63.0108 9.83841 63.5361 10.3891 63.9166 11.0889C64.293 11.7887 64.4832 12.5589 64.4832 13.4036C64.4832 14.2483 64.293 15.0185 63.9166 15.7183C63.5402 16.418 63.015 16.9688 62.3367 17.3746C61.6584 17.7803 60.9015 17.9832 60.0578 17.9832C59.2141 17.9874 58.4531 17.7803 57.7789 17.3746ZM61.5343 16.2855C61.9893 16.0205 62.3574 15.6396 62.6303 15.1427C62.9074 14.6458 63.0439 14.0661 63.0439 13.4036C63.0439 12.7369 62.9074 12.1572 62.6303 11.6603C62.3532 11.1634 61.9893 10.7825 61.5343 10.5175C61.0794 10.2525 60.5872 10.12 60.0578 10.12C59.5284 10.12 59.0321 10.2525 58.573 10.5175C58.1098 10.7825 57.7417 11.1634 57.4687 11.6603C57.1957 12.1572 57.0551 12.7369 57.0551 13.4036C57.0551 14.0661 57.1916 14.6499 57.4687 15.1427C57.7458 15.6396 58.1139 16.0205 58.573 16.2855C59.0362 16.5506 59.5284 16.6831 60.0578 16.6831C60.5872 16.6831 61.0794 16.5506 61.5343 16.2855Z" fill="white"/>
<path d="M65.9846 9.09307H67.3536V10.3601H67.4197C67.6679 9.92123 68.0401 9.5527 68.5323 9.26285C69.0286 8.96885 69.5497 8.82393 70.1039 8.82393C70.7326 8.82393 71.2827 8.97714 71.75 9.27941C72.2174 9.58168 72.5524 9.98748 72.7551 10.4968C73.057 9.98748 73.4623 9.58168 73.9628 9.27941C74.4632 8.97714 75.0464 8.82393 75.7081 8.82393C76.6966 8.82393 77.4452 9.1262 77.9457 9.72661C78.4461 10.3312 78.6984 11.1469 78.6984 12.1862V17.7141H77.2798V12.4098C77.2798 11.6106 77.1185 11.0268 76.7918 10.6666C76.465 10.3063 75.9811 10.1241 75.34 10.1241C74.914 10.1241 74.5253 10.2483 74.1737 10.4968C73.8263 10.7452 73.5533 11.0765 73.3548 11.4947C73.1563 11.9129 73.0611 12.3643 73.0611 12.8487V17.7182H71.626V12.4264C71.626 11.6148 71.4647 11.0268 71.1379 10.6666C70.8112 10.3063 70.3314 10.1241 69.7028 10.1241C69.2768 10.1241 68.888 10.2525 68.5364 10.5051C68.189 10.7577 67.916 11.0972 67.7175 11.5196C67.519 11.9419 67.4197 12.3974 67.4197 12.8819V17.7141H65.9846V9.09307Z" fill="white"/>
<path d="M82.3752 17.3953C81.7218 17.0019 81.2131 16.4553 80.8491 15.7638C80.4851 15.0723 80.299 14.2897 80.299 13.4243C80.299 12.592 80.4727 11.826 80.816 11.1262C81.1593 10.4264 81.6473 9.86741 82.276 9.45333C82.9046 9.03512 83.6367 8.82808 84.4721 8.82808C85.3159 8.82808 86.0479 9.01855 86.6683 9.39536C87.2887 9.77217 87.7643 10.2939 88.0952 10.9606C88.4261 11.6231 88.5915 12.385 88.5915 13.2421C88.5915 13.4119 88.575 13.5568 88.5419 13.681H81.7383C81.7714 14.3353 81.9286 14.886 82.2098 15.3373C82.4911 15.7887 82.8467 16.1282 83.281 16.3518C83.7153 16.5754 84.1661 16.6872 84.6417 16.6872C85.746 16.6872 86.5939 16.1696 87.1894 15.1344L88.4054 15.7266C88.0332 16.4263 87.5286 16.9771 86.8958 17.3828C86.263 17.7886 85.4896 17.9915 84.5921 17.9915C83.769 17.9874 83.0287 17.7886 82.3752 17.3953ZM87.0695 12.4926C87.0488 12.1324 86.9454 11.7721 86.7676 11.4119C86.5856 11.0517 86.3044 10.7452 85.9156 10.4968C85.5268 10.2484 85.0388 10.1241 84.4556 10.1241C83.7815 10.1241 83.2107 10.3395 82.7433 10.7742C82.276 11.209 81.9699 11.7804 81.8252 12.4885H87.0695V12.4926Z" fill="white"/>
<path d="M90.2625 9.09307H91.6315V10.3601H91.6976C91.9334 9.92951 92.3097 9.56926 92.8309 9.27113C93.3479 8.97299 93.8979 8.82393 94.4852 8.82393C95.5192 8.82393 96.3092 9.1262 96.8551 9.72661C97.4011 10.327 97.674 11.1469 97.674 12.1862V17.7141H96.2389V12.4098C96.2389 11.6106 96.0486 11.0268 95.664 10.6666C95.2793 10.3063 94.7582 10.1241 94.0923 10.1241C93.6291 10.1241 93.2155 10.2525 92.8515 10.5133C92.4876 10.7742 92.2022 11.1138 91.9995 11.5361C91.7969 11.9585 91.6976 12.4015 91.6976 12.8612V17.7141H90.2625V9.09307Z" fill="white"/>
<path d="M105.743 6.98129H102.348V5.6107H110.553V6.98129H107.178V17.7141H105.743V6.98129V6.98129Z" fill="white"/>
<path d="M112.344 17.3953C111.691 17.0019 111.182 16.4553 110.818 15.7638C110.454 15.0723 110.268 14.2897 110.268 13.4243C110.268 12.592 110.442 11.826 110.785 11.1262C111.128 10.4264 111.616 9.86741 112.245 9.45333C112.874 9.03926 113.606 8.82808 114.441 8.82808C115.285 8.82808 116.017 9.01855 116.637 9.39536C117.258 9.77217 117.733 10.2939 118.064 10.9606C118.395 11.6231 118.561 12.385 118.561 13.2421C118.561 13.4119 118.544 13.5568 118.511 13.681H111.703C111.736 14.3353 111.893 14.886 112.175 15.3373C112.456 15.7887 112.812 16.1282 113.246 16.3518C113.68 16.5754 114.131 16.6872 114.607 16.6872C115.711 16.6872 116.559 16.1696 117.154 15.1344L118.37 15.7266C117.998 16.4263 117.493 16.9771 116.861 17.3828C116.228 17.7886 115.454 17.9915 114.557 17.9915C113.734 17.9874 112.998 17.7886 112.344 17.3953ZM117.038 12.4926C117.018 12.1324 116.914 11.7721 116.737 11.4119C116.555 11.0517 116.273 10.7452 115.885 10.4968C115.496 10.2484 115.008 10.1241 114.425 10.1241C113.75 10.1241 113.18 10.3395 112.712 10.7742C112.245 11.209 111.939 11.7804 111.794 12.4885H117.038V12.4926Z" fill="white"/>
<path d="M121.968 17.3828C121.303 16.9853 120.786 16.4346 120.413 15.7431C120.041 15.0516 119.855 14.269 119.855 13.4036C119.855 12.534 120.041 11.7514 120.413 11.0558C120.786 10.356 121.303 9.80943 121.968 9.41606C122.634 9.02268 123.379 8.82393 124.214 8.82393C125.149 8.82393 125.935 9.03925 126.568 9.47403C127.205 9.9088 127.655 10.4844 127.928 11.2049L126.63 11.7473C126.415 11.2173 126.096 10.8156 125.674 10.5382C125.252 10.2608 124.744 10.1241 124.148 10.1241C123.643 10.1241 123.168 10.2608 122.729 10.5382C122.291 10.8156 121.939 11.2007 121.675 11.6935C121.41 12.1904 121.278 12.7576 121.278 13.4036C121.278 14.0454 121.41 14.6127 121.675 15.1096C121.939 15.6065 122.291 15.9916 122.729 16.2648C123.168 16.5423 123.639 16.6789 124.148 16.6789C124.756 16.6789 125.277 16.5381 125.72 16.2566C126.158 15.975 126.485 15.5775 126.7 15.0557L127.982 15.5982C127.688 16.3063 127.221 16.8818 126.572 17.3207C125.927 17.7597 125.141 17.9791 124.218 17.9791C123.379 17.9874 122.63 17.7845 121.968 17.3828Z" fill="white"/>
<path d="M129.529 5.61484H130.964V9.18002L130.898 10.3643H130.964C131.2 9.92535 131.576 9.55683 132.085 9.26697C132.598 8.97298 133.156 8.82805 133.764 8.82805C134.811 8.82805 135.609 9.13447 136.163 9.7473C136.713 10.3601 136.99 11.1759 136.99 12.1903V17.7182H135.555V12.4098C135.555 11.6313 135.356 11.0558 134.964 10.6831C134.571 10.3104 134.058 10.1241 133.429 10.1241C132.978 10.1241 132.565 10.2607 132.188 10.5299C131.812 10.799 131.514 11.1469 131.295 11.5775C131.076 12.0081 130.964 12.4512 130.964 12.915V17.7141H129.529V5.61484V5.61484Z" fill="white"/>
<path d="M139.054 9.09307H140.423V10.3601H140.489C140.737 9.92123 141.11 9.5527 141.602 9.26285C142.098 8.96885 142.619 8.82393 143.173 8.82393C143.802 8.82393 144.352 8.97714 144.819 9.27941C145.287 9.58168 145.622 9.98748 145.824 10.4968C146.126 9.98748 146.532 9.58168 147.032 9.27941C147.533 8.97714 148.116 8.82393 148.778 8.82393C149.766 8.82393 150.515 9.1262 151.015 9.72661C151.516 10.3312 151.768 11.1469 151.768 12.1862V17.7141H150.349V12.4098C150.349 11.6106 150.188 11.0268 149.861 10.6666C149.534 10.3063 149.051 10.1241 148.409 10.1241C147.983 10.1241 147.595 10.2483 147.243 10.4968C146.896 10.7452 146.623 11.0765 146.424 11.4947C146.226 11.9129 146.131 12.3643 146.131 12.8487V17.7182H144.695V12.4264C144.695 11.6148 144.534 11.0268 144.207 10.6666C143.881 10.3063 143.401 10.1241 142.772 10.1241C142.346 10.1241 141.957 10.2525 141.606 10.5051C141.258 10.7577 140.985 11.0972 140.787 11.5196C140.588 11.9419 140.489 12.3974 140.489 12.8819V17.7141H139.054V9.09307Z" fill="white"/>
<path d="M154.804 17.6147C154.307 17.3663 153.927 17.0267 153.654 16.592C153.385 16.1572 153.249 15.6644 153.249 15.1137C153.249 14.1986 153.592 13.4864 154.278 12.973C154.965 12.4595 155.833 12.2028 156.88 12.2028C157.397 12.2028 157.877 12.2607 158.323 12.3725C158.766 12.4843 159.109 12.6127 159.345 12.7618V12.2359C159.345 11.5941 159.122 11.0765 158.671 10.6873C158.22 10.298 157.653 10.1034 156.967 10.1034C156.483 10.1034 156.036 10.2069 155.635 10.4181C155.23 10.6252 154.907 10.915 154.671 11.2877L153.592 10.4761C153.931 9.9585 154.394 9.5527 154.986 9.25871C155.577 8.96472 156.23 8.81979 156.954 8.81979C158.125 8.81979 159.047 9.12621 159.713 9.73904C160.383 10.3519 160.718 11.1883 160.718 12.2483V17.7058H159.349V16.4719H159.283C159.035 16.8901 158.662 17.2421 158.17 17.5361C157.678 17.83 157.12 17.975 156.499 17.975C155.862 17.9874 155.3 17.859 154.804 17.6147ZM157.98 16.3477C158.398 16.0992 158.729 15.768 158.977 15.3497C159.225 14.9315 159.349 14.476 159.349 13.9792C159.08 13.797 158.745 13.652 158.352 13.5402C157.959 13.4284 157.542 13.3705 157.103 13.3705C156.313 13.3705 155.722 13.5361 155.321 13.8591C154.919 14.1862 154.721 14.6085 154.721 15.1261C154.721 15.5982 154.903 15.9833 155.263 16.2773C155.623 16.5713 156.077 16.7162 156.632 16.7162C157.111 16.7162 157.562 16.592 157.98 16.3477Z" fill="white"/>
<path d="M162.707 5.61484H164.143V13.2214L168.196 9.0972H170.02V9.16345L166.645 12.5796L170.107 17.652V17.7182H168.403L165.636 13.5775L164.151 15.064V17.7182H162.716V5.61484H162.707Z" fill="white"/>
<path d="M172.596 17.3953C171.943 17.0019 171.434 16.4553 171.07 15.7638C170.706 15.0723 170.52 14.2897 170.52 13.4243C170.52 12.592 170.694 11.826 171.037 11.1262C171.38 10.4264 171.868 9.86741 172.497 9.45333C173.126 9.03512 173.858 8.82808 174.693 8.82808C175.537 8.82808 176.269 9.01855 176.889 9.39536C177.51 9.77217 177.985 10.2939 178.316 10.9606C178.647 11.6231 178.813 12.385 178.813 13.2421C178.813 13.4119 178.796 13.5568 178.763 13.681H171.959C171.993 14.3353 172.15 14.886 172.431 15.3373C172.712 15.7887 173.068 16.1282 173.502 16.3518C173.936 16.5754 174.387 16.6872 174.863 16.6872C175.967 16.6872 176.815 16.1696 177.411 15.1344L178.627 15.7266C178.254 16.4263 177.75 16.9771 177.117 17.3828C176.484 17.7886 175.711 17.9915 174.813 17.9915C173.99 17.9874 173.25 17.7886 172.596 17.3953ZM177.291 12.4926C177.27 12.1324 177.167 11.7721 176.989 11.4119C176.807 11.0517 176.525 10.7452 176.137 10.4968C175.748 10.2484 175.26 10.1241 174.677 10.1241C174.003 10.1241 173.432 10.3395 172.964 10.7742C172.497 11.209 172.191 11.7804 172.046 12.4885H177.291V12.4926Z" fill="white"/>
<path d="M180.484 9.09307H181.853V10.4802H181.919C182.088 10.0082 182.415 9.61067 182.899 9.29597C183.383 8.98128 183.887 8.82393 184.417 8.82393C184.81 8.82393 185.149 8.88604 185.43 9.01026V10.5465C185.07 10.3643 184.665 10.2773 184.214 10.2773C183.796 10.2773 183.416 10.3974 183.064 10.6334C182.717 10.8695 182.436 11.1883 182.229 11.5899C182.022 11.9916 181.915 12.4222 181.915 12.886V17.7141H180.479V9.09307H180.484Z" fill="white"/>
<path d="M187.167 17.3332C186.547 16.8984 186.108 16.3435 185.852 15.6686L187.134 15.093C187.349 15.6106 187.668 16.0123 188.09 16.2938C188.511 16.5754 188.975 16.7162 189.483 16.7162C190.025 16.7162 190.484 16.6044 190.869 16.3849C191.254 16.1655 191.444 15.8508 191.444 15.445C191.444 15.0847 191.291 14.7949 190.989 14.5754C190.687 14.356 190.207 14.1655 189.554 14.0081L188.507 13.739C187.821 13.5692 187.258 13.2835 186.82 12.8777C186.381 12.4719 186.162 11.946 186.162 11.3042C186.162 10.8073 186.311 10.3726 186.609 9.99576C186.907 9.61895 187.304 9.3291 187.8 9.1262C188.296 8.9233 188.83 8.82393 189.405 8.82393C190.157 8.82393 190.832 8.98542 191.423 9.31254C192.015 9.63966 192.432 10.0951 192.68 10.6831L191.431 11.2587C191.047 10.4926 190.368 10.1076 189.388 10.1076C188.917 10.1076 188.503 10.2194 188.147 10.4388C187.792 10.6583 187.614 10.9398 187.614 11.2752C187.614 11.5899 187.738 11.8467 187.986 12.0454C188.234 12.2442 188.607 12.4057 189.099 12.5299L190.348 12.8487C191.191 13.064 191.828 13.3829 192.254 13.8052C192.68 14.2276 192.895 14.7452 192.895 15.3539C192.895 15.8839 192.742 16.3477 192.441 16.7493C192.139 17.151 191.725 17.4574 191.208 17.6727C190.691 17.888 190.116 17.9957 189.487 17.9957C188.557 17.9874 187.788 17.7679 187.167 17.3332Z" fill="white"/>
<path d="M7.30405 24.9811H0.500447C0.22334 24.9811 0 24.7575 0 24.4801V0.501029C0 0.2236 0.22334 0 0.500447 0H7.30405C7.58115 0 7.80449 0.2236 7.80449 0.501029V2.62523C7.80449 2.90266 7.58115 3.12626 7.30405 3.12626H3.61894C3.34183 3.12626 3.11849 3.34986 3.11849 3.62729V21.3455C3.11849 21.6229 3.34183 21.8465 3.61894 21.8465H7.30405C7.58115 21.8465 7.80449 22.0701 7.80449 22.3476V24.4883C7.80449 24.7575 7.58115 24.9811 7.30405 24.9811Z" fill="white"/>
<path d="M22.4374 0H29.212C29.485 0 29.7083 0.2236 29.7083 0.501029V24.4801C29.7083 24.7575 29.485 24.9811 29.212 24.9811H22.4374C22.1644 24.9811 21.9411 24.7575 21.9411 24.4801V22.3559C21.9411 22.0784 22.1644 21.8548 22.4374 21.8548H26.1101C26.3831 21.8548 26.6064 21.6312 26.6064 21.3538V3.63971C26.6064 3.36228 26.3831 3.13868 26.1101 3.13868H22.4374C22.1644 3.13868 21.9411 2.91508 21.9411 2.63765V0.496888C21.9411 0.223599 22.1644 0 22.4374 0Z" fill="white"/>
<path d="M18.8226 12.2235L17.5942 10.4016C17.5736 10.5093 17.5405 10.6128 17.4867 10.708L17.4826 10.7163L15.1458 14.2525L18.864 19.8632C19.0584 20.2027 19.2734 20.2897 19.5629 20.2938C19.5671 20.2938 19.5671 20.2938 19.5712 20.2938H19.5878H22.7228H22.7517C23.1653 20.2938 23.5003 19.9584 23.5003 19.5444V19.151L18.8226 12.2235Z" fill="white"/>
<path d="M23.5003 5.43681C23.5003 5.02273 23.1653 4.68733 22.7517 4.68733H19.5712C19.1576 4.68733 18.8184 5.0393 18.8226 5.43681V11.6686L23.5003 18.6002V5.43681Z" fill="white"/>
<path d="M11.0136 5.43681C11.0136 5.02273 10.6786 4.68733 10.265 4.68733H7.08445C6.67085 4.68733 6.33585 5.02273 6.33585 5.43681V18.6665L11.0136 11.7556V5.43681Z" fill="white"/>
<path d="M17.1806 9.7763C17.1475 9.71833 17.1062 9.6645 17.0648 9.61067C16.9242 9.4616 16.7257 9.36636 16.4899 9.36636H13.4376C13.1357 9.36636 12.8917 9.52785 12.7138 9.797L11.0843 12.1945L6.33209 19.213V19.5402C6.33209 19.6437 6.35691 19.7389 6.4024 19.8217C6.51821 20.095 6.77464 20.2855 7.1386 20.2855H10.253H10.2612H10.2654H10.3357C10.6376 20.2855 10.8858 20.1282 11.0595 19.8549L14.9555 13.9584L17.2137 10.5382C17.3419 10.3229 17.3254 10.0289 17.1806 9.7763Z" fill="white"/>
</svg>
