<svg width="30" height="25" viewBox="0 0 30 25" fill="none" xmlns="http://www.w3.org/2000/svg">
<path d="M7.30405 24.9811H0.500447C0.22334 24.9811 0 24.7575 0 24.4801V0.501029C0 0.2236 0.22334 0 0.500447 0H7.30405C7.58115 0 7.80449 0.2236 7.80449 0.501029V2.62523C7.80449 2.90266 7.58115 3.12626 7.30405 3.12626H3.61894C3.34183 3.12626 3.11849 3.34986 3.11849 3.62729V21.3455C3.11849 21.6229 3.34183 21.8465 3.61894 21.8465H7.30405C7.58115 21.8465 7.80449 22.0701 7.80449 22.3476V24.4883C7.80449 24.7575 7.58115 24.9811 7.30405 24.9811Z" fill="white"/>
<path d="M22.4374 0H29.212C29.485 0 29.7083 0.2236 29.7083 0.501029V24.4801C29.7083 24.7575 29.485 24.9811 29.212 24.9811H22.4374C22.1644 24.9811 21.9411 24.7575 21.9411 24.4801V22.3559C21.9411 22.0784 22.1644 21.8548 22.4374 21.8548H26.1101C26.3831 21.8548 26.6064 21.6312 26.6064 21.3538V3.63971C26.6064 3.36228 26.3831 3.13868 26.1101 3.13868H22.4374C22.1644 3.13868 21.9411 2.91508 21.9411 2.63765V0.496888C21.9411 0.223599 22.1644 0 22.4374 0Z" fill="white"/>
<path d="M18.8226 12.2235L17.5942 10.4016C17.5736 10.5093 17.5405 10.6128 17.4867 10.708L17.4826 10.7163L15.1458 14.2525L18.864 19.8632C19.0584 20.2027 19.2734 20.2897 19.5629 20.2938C19.5671 20.2938 19.5671 20.2938 19.5712 20.2938H19.5878H22.7228H22.7517C23.1653 20.2938 23.5003 19.9584 23.5003 19.5444V19.151L18.8226 12.2235Z" fill="white"/>
<path d="M23.5003 5.43681C23.5003 5.02273 23.1653 4.68733 22.7517 4.68733H19.5712C19.1576 4.68733 18.8184 5.0393 18.8226 5.43681V11.6686L23.5003 18.6002V5.43681Z" fill="white"/>
<path d="M11.0136 5.43681C11.0136 5.02273 10.6786 4.68733 10.265 4.68733H7.08445C6.67085 4.68733 6.33585 5.02273 6.33585 5.43681V18.6665L11.0136 11.7556V5.43681Z" fill="white"/>
<path d="M17.1806 9.7763C17.1475 9.71833 17.1062 9.6645 17.0648 9.61067C16.9242 9.4616 16.7257 9.36636 16.4899 9.36636H13.4376C13.1357 9.36636 12.8917 9.52785 12.7138 9.797L11.0843 12.1945L6.33209 19.213V19.5402C6.33209 19.6437 6.35691 19.7389 6.4024 19.8217C6.51821 20.095 6.77464 20.2855 7.1386 20.2855H10.253H10.2612H10.2654H10.3357C10.6376 20.2855 10.8858 20.1282 11.0595 19.8549L14.9555 13.9584L17.2137 10.5382C17.3419 10.3229 17.3254 10.0289 17.1806 9.7763Z" fill="white"/>
</svg>
